<svg id="Capa_1" data-name="Capa 1" xmlns="http://www.w3.org/2000/svg" viewBox="0 0 1900 720"><defs><style>.cls-1{fill:#fff;}.cls-2{fill:#1d1d1b;}.cls-3{opacity:0.85;}</style></defs><rect class="cls-1" x="670" y="-0.83" width="560" height="720" rx="280"/><path class="cls-2" d="M774.08,312v56h-7.44V343.47H737.27V368h-7.51V312h7.51v24.33h29.37V312Z"/><path class="cls-2" d="M800.19,368.8a17.21,17.21,0,0,1-8.18-1.94,14.14,14.14,0,0,1-5.81-5.69,20.51,20.51,0,0,1,.12-18.44,15.68,15.68,0,0,1,6-6,16.76,16.76,0,0,1,8.26-2.09,13.45,13.45,0,0,1,7.59,2.06,14.81,14.81,0,0,1,4.73,4.84l-.47,1.24.7-6.82h6.66V368h-7.2v-8.37l.77,1.86a7.67,7.67,0,0,1-1.36,2,15.45,15.45,0,0,1-2.78,2.45,16.91,16.91,0,0,1-4,2.05A14.7,14.7,0,0,1,800.19,368.8Zm1.94-6a11.51,11.51,0,0,0,4.88-1,9.72,9.72,0,0,0,3.6-2.83,10.49,10.49,0,0,0,2-4.38v-6.27a10,10,0,0,0-2.17-4.07,10.89,10.89,0,0,0-3.72-2.71,11.61,11.61,0,0,0-4.81-1,10.33,10.33,0,0,0-9.1,5.27,11.35,11.35,0,0,0-1.43,5.81,11.13,11.13,0,0,0,1.47,5.65,10.91,10.91,0,0,0,3.95,4A10.2,10.2,0,0,0,802.13,362.84Z"/><path class="cls-2" d="M850.24,368.8a15.23,15.23,0,0,1-7.78-1.94,16,16,0,0,1-5.39-4.88l.85-2.24V368h-7.2v-60h7.13v35.26l-.24-2.71a13.92,13.92,0,0,1,5.54-4.3,18.9,18.9,0,0,1,8-1.67,15.41,15.41,0,0,1,7.91,2.09,15.6,15.6,0,0,1,5.69,5.85,20,20,0,0,1-.15,18.25,15.62,15.62,0,0,1-6.09,5.93A17.12,17.12,0,0,1,850.24,368.8Zm-1.47-6.12a10.72,10.72,0,0,0,5.58-1.47,10.44,10.44,0,0,0,3.87-4,11.71,11.71,0,0,0,1.4-5.77,11.12,11.12,0,0,0-1.44-5.62,10.74,10.74,0,0,0-3.87-4,10.52,10.52,0,0,0-5.54-1.47,11.8,11.8,0,0,0-4.88,1,11.12,11.12,0,0,0-3.8,2.75,10,10,0,0,0-2.17,4.07v6.43a11.22,11.22,0,0,0,2.09,4.15,10.37,10.37,0,0,0,3.72,2.86A11.78,11.78,0,0,0,848.77,362.68Z"/><path class="cls-2" d="M874.57,324.33a3.61,3.61,0,0,1,1.36-2.87,4.5,4.5,0,0,1,3-1.16,4.24,4.24,0,0,1,2.91,1.16,3.72,3.72,0,0,1,1.28,2.87,3.68,3.68,0,0,1-1.28,2.9,4.3,4.3,0,0,1-2.91,1.13,4.46,4.46,0,0,1-3-1.17A3.61,3.61,0,0,1,874.57,324.33Zm.54,11.62h7.21V368h-7.21Z"/><path class="cls-2" d="M893.24,308.05h7.21v60h-7.21Z"/><path class="cls-2" d="M910.83,324.33a3.61,3.61,0,0,1,1.36-2.87,4.5,4.5,0,0,1,3-1.16,4.22,4.22,0,0,1,2.91,1.16,3.72,3.72,0,0,1,1.28,2.87,3.68,3.68,0,0,1-1.28,2.9,4.28,4.28,0,0,1-2.91,1.13,4.46,4.46,0,0,1-3-1.17A3.61,3.61,0,0,1,910.83,324.33Zm.55,11.62h7.2V368h-7.2Z"/><path class="cls-2" d="M932.61,321.85h7.2V336.1h8.83v5.66h-8.83V368h-7.2V341.76h-5.89V336.1h5.89Z"/><path class="cls-2" d="M969.1,368.8a17.14,17.14,0,0,1-8.17-1.94,14.11,14.11,0,0,1-5.82-5.69,20.51,20.51,0,0,1,.12-18.44,15.63,15.63,0,0,1,6-6,16.69,16.69,0,0,1,8.25-2.09,13.45,13.45,0,0,1,7.59,2.06,14.71,14.71,0,0,1,4.73,4.84l-.47,1.24L982,336h6.66V368h-7.2v-8.37l.77,1.86a7.58,7.58,0,0,1-1.35,2,15.9,15.9,0,0,1-2.79,2.45,17,17,0,0,1-4,2.05A14.8,14.8,0,0,1,969.1,368.8Zm1.94-6a11.51,11.51,0,0,0,4.88-1,9.72,9.72,0,0,0,3.6-2.83,10.36,10.36,0,0,0,2-4.38v-6.27a10,10,0,0,0-2.17-4.07,10.89,10.89,0,0,0-3.72-2.71,11.61,11.61,0,0,0-4.81-1,10.36,10.36,0,0,0-9.1,5.27,11.35,11.35,0,0,0-1.43,5.81,11.13,11.13,0,0,0,1.47,5.65,10.91,10.91,0,0,0,4,4A10.23,10.23,0,0,0,971,362.84Z"/><path class="cls-2" d="M1012.65,368.8a15.44,15.44,0,0,1-8-2.13,15.11,15.11,0,0,1-5.7-6,18.92,18.92,0,0,1-2.09-9,17.81,17.81,0,0,1,2.21-9.14,14.9,14.9,0,0,1,6-5.81,17.81,17.81,0,0,1,8.52-2,16.73,16.73,0,0,1,7.25,1.63,13,13,0,0,1,5.38,4.49l-.31,2.56V308.05H1033v60h-7.2v-8l.77,2a17.51,17.51,0,0,1-5.81,4.84A17,17,0,0,1,1012.65,368.8Zm2.24-6.12a12,12,0,0,0,5.12-1.05,10.14,10.14,0,0,0,3.72-2.9,11.39,11.39,0,0,0,2.09-4.42v-6a9.69,9.69,0,0,0-2.21-4.07,12.19,12.19,0,0,0-3.8-2.79,11.3,11.3,0,0,0-4.92-1,10.36,10.36,0,0,0-5.38,1.43,10.82,10.82,0,0,0-5.39,9.65,11.09,11.09,0,0,0,1.47,5.69,11.33,11.33,0,0,0,4,4A10,10,0,0,0,1014.89,362.68Z"/><path class="cls-2" d="M1041.24,351.68a16.79,16.79,0,0,1,2.28-8.68,16.53,16.53,0,0,1,6.32-6.12,19.85,19.85,0,0,1,18.36,0,15.92,15.92,0,0,1,6.12,6.12,17.42,17.42,0,0,1,2.17,8.68,17.65,17.65,0,0,1-2.17,8.72,15.7,15.7,0,0,1-6.16,6.15,18.54,18.54,0,0,1-9.26,2.25,19,19,0,0,1-9.1-2.13,15.87,15.87,0,0,1-6.28-6A17.36,17.36,0,0,1,1041.24,351.68Zm7.2.08a11.39,11.39,0,0,0,1.4,5.61,10.74,10.74,0,0,0,3.75,4,9.64,9.64,0,0,0,5.23,1.48,9.92,9.92,0,0,0,5.39-1.48,10.19,10.19,0,0,0,3.68-4,12.6,12.6,0,0,0,0-11.23,10.51,10.51,0,0,0-3.68-4,9.77,9.77,0,0,0-5.39-1.51,9.46,9.46,0,0,0-5.3,1.55,11,11,0,0,0-3.72,4.07A11.42,11.42,0,0,0,1048.44,351.76Z"/><path class="cls-2" d="M1117.87,368.8a19,19,0,0,1-9.46-2.21,15.36,15.36,0,0,1-6.08-6,17.82,17.82,0,0,1-2.13-8.79,16,16,0,0,1,2.4-8.6A18,18,0,0,1,1109,337a17.67,17.67,0,0,1,9-2.33,15.27,15.27,0,0,1,10.54,3.72,18.83,18.83,0,0,1,5.66,10.23l-26.43,9.3-1.7-4.26,21.69-7.91-1.55,1a10.76,10.76,0,0,0-3.09-4.46,8.32,8.32,0,0,0-5.66-1.89,9.8,9.8,0,0,0-5.27,1.43,10.08,10.08,0,0,0-3.64,3.91,12.86,12.86,0,0,0,.08,11.51,10.17,10.17,0,0,0,3.83,3.95,10.69,10.69,0,0,0,5.54,1.43,11,11,0,0,0,4.07-.77,16.46,16.46,0,0,0,3.68-2l3.33,5.35a22.43,22.43,0,0,1-5.38,2.63A18,18,0,0,1,1117.87,368.8Z"/><path class="cls-2" d="M1148.16,336l.62,7.82-.31-1.24a12.31,12.31,0,0,1,5-5.69,15.14,15.14,0,0,1,8.06-2.13,10.6,10.6,0,0,1,7.47,2.67,9.27,9.27,0,0,1,3,6.94V368h-7.29V346.87a6.65,6.65,0,0,0-1.51-4.3,5.57,5.57,0,0,0-4.45-1.66,8.7,8.7,0,0,0-5,1.55,10.48,10.48,0,0,0-3.53,4.26,14.61,14.61,0,0,0-1.27,6.28v15h-7.21V336Z"/><path class="cls-2" d="M892.18,585.92q3.17-3.07,6.05-6c1.92-2,3.64-3.9,5.18-5.75a30.48,30.48,0,0,0,3.65-5.38,11,11,0,0,0,1.33-5,6.63,6.63,0,0,0-.54-2.8,5.55,5.55,0,0,0-3.37-3,6.84,6.84,0,0,0-2.24-.38,6.58,6.58,0,0,0-2.77.53,5.22,5.22,0,0,0-1.86,1.36,5.42,5.42,0,0,0-1,1.78,5.7,5.7,0,0,0-.33,1.89,8.33,8.33,0,0,0,.5,3,6.78,6.78,0,0,0,1.44,2.3l-3,2.63a6.44,6.44,0,0,1-2-2.08A11.53,11.53,0,0,1,892,566a10.93,10.93,0,0,1-.42-2.8,10.08,10.08,0,0,1,1.32-5,9.7,9.7,0,0,1,3.87-3.8,12.47,12.47,0,0,1,6.22-1.44,10.15,10.15,0,0,1,5.45,1.44,10,10,0,0,1,3.62,3.8,10.56,10.56,0,0,1,1.29,5.18,12.49,12.49,0,0,1-1,4.85,24.05,24.05,0,0,1-2.65,4.72,54.51,54.51,0,0,1-3.67,4.58q-2,2.26-4,4.54l-2.09-.69h14.48v4.61Z"/><path class="cls-2" d="M935,586.07a13.38,13.38,0,0,1-5.55-1.14,12.07,12.07,0,0,1-4.34-3.3,15.31,15.31,0,0,1-2.8-5.23,22.44,22.44,0,0,1-1-6.89,25.06,25.06,0,0,1,.94-7.27,13.93,13.93,0,0,1,2.75-5.18,11.23,11.23,0,0,1,4.34-3.1,15,15,0,0,1,5.65-1,13.18,13.18,0,0,1,5.53,1.14,12.17,12.17,0,0,1,4.32,3.3,15.69,15.69,0,0,1,2.82,5.21,21.75,21.75,0,0,1,1,6.92,22.16,22.16,0,0,1-1,7,15.34,15.34,0,0,1-2.82,5.2,11.92,11.92,0,0,1-4.32,3.25A13.33,13.33,0,0,1,935,586.07Zm0-4.62a7.68,7.68,0,0,0,4.84-1.51,9.17,9.17,0,0,0,3-4.24,18.37,18.37,0,0,0,1-6.29,17.78,17.78,0,0,0-1-6.23,9,9,0,0,0-3-4.14,7.79,7.79,0,0,0-4.84-1.49,7.58,7.58,0,0,0-4.81,1.52,9,9,0,0,0-2.9,4.19,20.73,20.73,0,0,0,0,12.47,9.1,9.1,0,0,0,2.9,4.21A7.57,7.57,0,0,0,935,581.45Z"/><path class="cls-2" d="M956.05,585.92q3.16-3.07,6.05-6c1.92-2,3.64-3.9,5.18-5.75a30.48,30.48,0,0,0,3.65-5.38,11,11,0,0,0,1.33-5,6.63,6.63,0,0,0-.54-2.8,5.76,5.76,0,0,0-1.41-1.91,6,6,0,0,0-2-1.11,6.83,6.83,0,0,0-2.23-.38,6.6,6.6,0,0,0-2.78.53,5.22,5.22,0,0,0-1.86,1.36,5.42,5.42,0,0,0-1,1.78,5.7,5.7,0,0,0-.33,1.89,8.33,8.33,0,0,0,.5,3,6.78,6.78,0,0,0,1.44,2.3l-3,2.63a6.44,6.44,0,0,1-2-2.08,11.16,11.16,0,0,1-1.23-2.9,10.56,10.56,0,0,1-.43-2.8,10.08,10.08,0,0,1,1.32-5,9.7,9.7,0,0,1,3.87-3.8,12.47,12.47,0,0,1,6.22-1.44,10.15,10.15,0,0,1,5.45,1.44,10,10,0,0,1,3.62,3.8,10.56,10.56,0,0,1,1.29,5.18,12.49,12.49,0,0,1-1,4.85,24.05,24.05,0,0,1-2.65,4.72,54.51,54.51,0,0,1-3.67,4.58q-2,2.26-4,4.54l-2.09-.69h14.48v4.61Z"/><path class="cls-2" d="M986.05,585.92q3.18-3.07,6.05-6t5.18-5.75a30.48,30.48,0,0,0,3.65-5.38,11.06,11.06,0,0,0,1.34-5,6.62,6.62,0,0,0-.55-2.8,5.63,5.63,0,0,0-1.41-1.91,5.86,5.86,0,0,0-2-1.11,6.83,6.83,0,0,0-2.23-.38,6.63,6.63,0,0,0-2.78.53,5.22,5.22,0,0,0-1.86,1.36,5.42,5.42,0,0,0-1,1.78,5.69,5.69,0,0,0-.32,1.89,8.34,8.34,0,0,0,.49,3,6.78,6.78,0,0,0,1.44,2.3l-3,2.63a6.32,6.32,0,0,1-2-2.08,10.85,10.85,0,0,1-1.24-2.9,10.56,10.56,0,0,1-.43-2.8,10.08,10.08,0,0,1,1.32-5,9.7,9.7,0,0,1,3.87-3.8,12.47,12.47,0,0,1,6.22-1.44,10.21,10.21,0,0,1,5.46,1.44,10.08,10.08,0,0,1,3.62,3.8,10.66,10.66,0,0,1,1.28,5.18,12.49,12.49,0,0,1-1,4.85,24.05,24.05,0,0,1-2.65,4.72,54.51,54.51,0,0,1-3.67,4.58q-2,2.26-4,4.54l-2.08-.69h14.48v4.61Z"/><g class="cls-3"><path class="cls-2" d="M764.73,592.5a2.53,2.53,0,0,1,1.59.93,2.49,2.49,0,0,1,.47,1.72,2.15,2.15,0,0,1-.86,1.65,2.1,2.1,0,0,1-1.83.43,2.61,2.61,0,0,1-1.51-.9,2.73,2.73,0,0,1-.55-1.75,2.09,2.09,0,0,1,.88-1.66A2.16,2.16,0,0,1,764.73,592.5Z"/><path class="cls-2" d="M797.22,638.27a5.25,5.25,0,0,1-1.68-.24,15.55,15.55,0,0,1-2.24-.82,24,24,0,0,1-2.36-1.22,13.68,13.68,0,0,1-2-1.46,17,17,0,0,1-3.64-4.34,12.69,12.69,0,0,1-1.62-4.61A10.55,10.55,0,0,1,784,621a11.34,11.34,0,0,1,2.34-4.09,14.15,14.15,0,0,1,4.55-3.6,11.41,11.41,0,0,1,4.82-1.14,11.81,11.81,0,0,1,4.73,1,15.67,15.67,0,0,1,4.25,2.68,19.12,19.12,0,0,1,3,3.34,15.2,15.2,0,0,1,1.77,3.22l-4.11,2.24a11.09,11.09,0,0,0-.82-1.59,18.39,18.39,0,0,0-1.24-1.79,9.08,9.08,0,0,0-1.29-1.41,12.21,12.21,0,0,0-3.08-2.05,7,7,0,0,0-3-.67,6.12,6.12,0,0,0-2.83.74,9.46,9.46,0,0,0-2.64,2.17,7.25,7.25,0,0,0-1.54,2.7,6.53,6.53,0,0,0-.19,2.88,7.48,7.48,0,0,0,1.06,2.83,11,11,0,0,0,2.24,2.61,11.47,11.47,0,0,0,1.58,1.19,5,5,0,0,0,1.45.65l1.91-2.18-3.3-2.89,3-3.43,7.13,6.24Z"/><path class="cls-2" d="M807.76,634.54a11.29,11.29,0,0,1,3.45-3.33,12.53,12.53,0,0,1,4.5-1.7,13.15,13.15,0,0,1,9.66,2.07,13,13,0,0,1,3.62,3.61,13.62,13.62,0,0,1,2,4.55,12.75,12.75,0,0,1,.17,4.84,11.12,11.12,0,0,1-1.77,4.46,11.35,11.35,0,0,1-3.49,3.38,12.29,12.29,0,0,1-4.52,1.64,13.43,13.43,0,0,1-4.93-.14,13.94,13.94,0,0,1-8.35-5.61,13.09,13.09,0,0,1-2-4.48,12.22,12.22,0,0,1-.14-4.78A11.5,11.5,0,0,1,807.76,634.54Zm4.31,2.9a7.18,7.18,0,0,0-1.15,2.8,7.67,7.67,0,0,0,0,3,8,8,0,0,0,1.18,2.77,8.22,8.22,0,0,0,2.28,2.23,7.85,7.85,0,0,0,2.84,1.2,7.46,7.46,0,0,0,2.94,0,7.83,7.83,0,0,0,2.71-1.12,7.39,7.39,0,0,0,2.14-2.14,7.54,7.54,0,0,0,1.19-2.85,8,8,0,0,0,0-3,7.4,7.4,0,0,0-1.14-2.74,8.4,8.4,0,0,0-5.11-3.43,7.72,7.72,0,0,0-3,0,7.46,7.46,0,0,0-2.74,1.12A7.71,7.71,0,0,0,812.07,637.44Z"/><path class="cls-2" d="M847.1,644.72a11.65,11.65,0,0,1,4.95,4.23,5,5,0,0,1,0,5.09,5.79,5.79,0,0,1-2.71,2.75,6.9,6.9,0,0,1-3.81.54,13.09,13.09,0,0,1-4.39-1.43l.45-2.62a17.76,17.76,0,0,1,4.6,3.27,9.13,9.13,0,0,1,2.37,3.83,5.11,5.11,0,0,1-.39,3.88,6.77,6.77,0,0,1-2.17,2.6,6,6,0,0,1-2.78,1,8.61,8.61,0,0,1-3.09-.23,14.48,14.48,0,0,1-3.09-1.16l-7.54-3.87,10.92-21.31Zm-8.24,17.75a6.62,6.62,0,0,0,1.91.67,3,3,0,0,0,1.66-.14,2.21,2.21,0,0,0,1.15-1.11,2,2,0,0,0,.17-1.69,3.69,3.69,0,0,0-1.09-1.4,9.6,9.6,0,0,0-1.74-1.12l-2.55-1.31L836,661Zm4.3-8.77a2.7,2.7,0,0,0,2.34.25,3,3,0,0,0,1.51-1.38,2.16,2.16,0,0,0,.06-2.06,4.12,4.12,0,0,0-1.83-1.63l-2.4-1.23-2.39,4.66Z"/><path class="cls-2" d="M860.81,651.21l4.62,1.94-9.24,22.09-4.63-1.94Z"/><path class="cls-2" d="M871.78,655.75l16.49,5.43-1.42,4.33-11.73-3.86-1.6,4.85,10.38,3.42-1.42,4.33-10.38-3.42-1.62,4.91,12.19,4-1.43,4.33-17-5.58Z"/><path class="cls-2" d="M901.32,664.3a14.52,14.52,0,0,1,4,1.46,8.76,8.76,0,0,1,2.71,2.26,7,7,0,0,1,1.34,2.89,8.34,8.34,0,0,1-.07,3.4,9.77,9.77,0,0,1-1.08,2.76,7.33,7.33,0,0,1-2.06,2.28,7.44,7.44,0,0,1-3.13,1.3,11,11,0,0,1-4.35-.2l-3.51-.77-1.63,7.44-4.9-1.06,5.11-23.41ZM899.66,676a4.56,4.56,0,0,0,1.93.06,3.24,3.24,0,0,0,1.36-.64,3.78,3.78,0,0,0,.86-1,3.65,3.65,0,0,0,.42-1.06,5.16,5.16,0,0,0,.1-1,3.92,3.92,0,0,0-.23-1.3,3.11,3.11,0,0,0-.91-1.26,4.52,4.52,0,0,0-2-.86l-3.51-.77-1.54,7.06Zm4,3.87,4.18,10.37L902.1,689l-4.34-10.27Z"/><path class="cls-2" d="M937.16,694.56l-17.57-18.24,1.4.93-1.35,14.58-5.06-.51,2.47-24.77.21,0,17.17,18.13-1.06-.56,1.38-14.87,5,.5-2.48,24.8Z"/><path class="cls-2" d="M944.84,682a11.26,11.26,0,0,1,.89-4.71,12.6,12.6,0,0,1,2.69-4,13.38,13.38,0,0,1,4.06-2.78,13.5,13.5,0,0,1,10.07-.25,13.66,13.66,0,0,1,4.23,2.58,12.43,12.43,0,0,1,2.93,3.85,11,11,0,0,1,1.14,4.66,11.17,11.17,0,0,1-.91,4.78,12,12,0,0,1-2.74,4,13.34,13.34,0,0,1-9.09,3.79,13.33,13.33,0,0,1-9.27-3.33,12.38,12.38,0,0,1-2.88-3.82A11.46,11.46,0,0,1,944.84,682Zm5.19-.13a7.39,7.39,0,0,0,.68,3,7.5,7.5,0,0,0,1.75,2.39,7.92,7.92,0,0,0,2.57,1.59,8.25,8.25,0,0,0,3.14.5,7.53,7.53,0,0,0,3-.66,7.23,7.23,0,0,0,2.4-1.7,7.92,7.92,0,0,0,1.57-2.48,7.62,7.62,0,0,0,.51-3,7.54,7.54,0,0,0-.68-3,8,8,0,0,0-1.72-2.42,7.69,7.69,0,0,0-2.51-1.58,8.4,8.4,0,0,0-6.16.15,7.78,7.78,0,0,0-2.45,1.71,7.44,7.44,0,0,0-1.6,2.49A7.69,7.69,0,0,0,950,681.91Z"/><path class="cls-2" d="M991.77,690.82l-4.65-23.49,7.46-1.48a17.7,17.7,0,0,1,6.62-.22,11.67,11.67,0,0,1,4.82,2,11.33,11.33,0,0,1,3.13,3.46,13.8,13.8,0,0,1,1.62,4.22,11.09,11.09,0,0,1-.07,4.91,11,11,0,0,1-2,4.12,12.25,12.25,0,0,1-3.55,3.06,14.89,14.89,0,0,1-4.66,1.73Zm4-5.44,2.92-.58a11.55,11.55,0,0,0,3.3-1.13,7.69,7.69,0,0,0,2.36-1.88,5.86,5.86,0,0,0,1.25-2.59,9,9,0,0,0-1.56-6.82,6.55,6.55,0,0,0-2.41-1.86,7.54,7.54,0,0,0-2.61-.63,9.11,9.11,0,0,0-2.13.11l-4,.79Z"/><path class="cls-2" d="M1013.34,661.52l4.82-1.39,6.63,23-4.82,1.39Z"/><path class="cls-2" d="M1051.67,671a5.17,5.17,0,0,1-1,1.38,16.05,16.05,0,0,1-1.78,1.6,22.3,22.3,0,0,1-2.18,1.52,14.09,14.09,0,0,1-2.24,1.11,17.18,17.18,0,0,1-5.54,1.2,12.6,12.6,0,0,1-4.83-.73,10.36,10.36,0,0,1-3.83-2.45,11.35,11.35,0,0,1-2.53-4,14.28,14.28,0,0,1-1-5.72,11.33,11.33,0,0,1,1.24-4.79,11.63,11.63,0,0,1,3-3.73,15.53,15.53,0,0,1,4.36-2.5,18.44,18.44,0,0,1,4.38-1.14,15.89,15.89,0,0,1,3.68-.07l0,4.69a10.28,10.28,0,0,0-1.79,0,19.88,19.88,0,0,0-2.16.26,9.52,9.52,0,0,0-1.85.48,12.43,12.43,0,0,0-3.25,1.76,7.21,7.21,0,0,0-2,2.33,6.11,6.11,0,0,0-.67,2.85,9.37,9.37,0,0,0,.69,3.35,7.24,7.24,0,0,0,1.67,2.62,6.57,6.57,0,0,0,2.45,1.51,7.74,7.74,0,0,0,3,.39,11.4,11.4,0,0,0,3.36-.76,13.46,13.46,0,0,0,1.78-.84,5.12,5.12,0,0,0,1.26-1l-1-2.7-4.1,1.57L1039.2,665l8.85-3.39Z"/><path class="cls-2" d="M1049.23,648.24l4.51-2.19,10.45,21.55-4.52,2.19Z"/><path class="cls-2" d="M1058.43,643.81l14.85-8.59,2.28,3.94-5.36,3.1,9.72,16.79-4.34,2.51-9.72-16.79-5.14,3Z"/><path class="cls-2" d="M1087.24,654.85l-5-26.94.22-.16,23.78,13.65-4.74,3.36-16.11-10,1.6-4,4.33,21.27Zm1.4-11.6,6.23-4.42,3.74,2.21-8.95,6.35Z"/><path class="cls-2" d="M1095.11,619.41l3.76-3.32,12.85,14.52,9-7.93,3,3.41L1111,637.35Z"/><path class="cls-2" d="M1136,596a2.55,2.55,0,0,1,.52-1.77,2.48,2.48,0,0,1,1.55-.88,2.19,2.19,0,0,1,1.82.44,2.09,2.09,0,0,1,.86,1.66,2.51,2.51,0,0,1-2.07,2.64,2.1,2.1,0,0,1-1.83-.44A2.19,2.19,0,0,1,1136,596Z"/></g><g class="cls-3"><path class="cls-2" d="M724.2,260.24l-21.4-13.3,0-.24,24.33-6.55-.74,5-17,4-1.69-3.46L724.83,256Zm-7-8,1-6.61,3.87-1-1.4,9.48Z"/><path class="cls-2" d="M706.63,230.48l17.08-2.61-1.08,2.35-13.72-9.32,1.2-5.06,20.29,15.27-25,4.49Z"/><path class="cls-2" d="M731.65,221.35l-18.76-16.84.08-.23,25.1-2.2-1.6,4.82-17.45.93-1.06-3.7,15,13.12Zm-5.46-9,2.12-6.34,4-.29-3,9.08Z"/><path class="cls-2" d="M748.89,180.2,728,189.14l1.2-.87,12.39,5.6-1.86,4-21-9.67.07-.17,20.68-8.64-.79.7-12.63-5.72,1.84-4,21,9.68Z"/><path class="cls-2" d="M758.5,158.33a8.62,8.62,0,0,1,0,1.58,12.79,12.79,0,0,1-.46,2.52,11.12,11.12,0,0,1-1.31,2.88,12.35,12.35,0,0,1-3.23,3.54,10.25,10.25,0,0,1-3.89,1.76,10.78,10.78,0,0,1-4.16.06,12,12,0,0,1-4-1.55,13.56,13.56,0,0,1-3.6-3.05,10.79,10.79,0,0,1-2-3.78,9.91,9.91,0,0,1-.28-4.17,11.28,11.28,0,0,1,1.54-4.21,12,12,0,0,1,2.56-3.09,14,14,0,0,1,2.56-1.74l2.66,3.61a11.91,11.91,0,0,0-2.05,1.11,6.36,6.36,0,0,0-2,2.15,5.86,5.86,0,0,0-.8,2.36,6.4,6.4,0,0,0,.23,2.53,7.37,7.37,0,0,0,1.2,2.37,7.53,7.53,0,0,0,2.14,1.88,9,9,0,0,0,2.75,1.1,6.4,6.4,0,0,0,2.65,0,6,6,0,0,0,2.34-1,7.25,7.25,0,0,0,1.86-2.11,7.45,7.45,0,0,0,1.08-2.91,7,7,0,0,0,0-2.28Z"/><path class="cls-2" d="M745.43,141.38l9-12.2,3.4,2.52-6.41,8.67,3.81,2.82,5.68-7.68,3.4,2.52-5.68,7.68,3.86,2.86,6.67-9,3.4,2.52-9.27,12.53Z"/><path class="cls-2" d="M771.67,117.46a17.79,17.79,0,0,0-2.58,1.17,7.69,7.69,0,0,0-2,1.55,3.83,3.83,0,0,0-1.06,2,2,2,0,0,0,.75,1.75,1.9,1.9,0,0,0,1.46.47,5.91,5.91,0,0,0,1.89-.46,20.39,20.39,0,0,0,2-.95,16.7,16.7,0,0,1,1.92-.86,7.06,7.06,0,0,1,2.06-.46,5.64,5.64,0,0,1,2.18.32,7,7,0,0,1,2.32,1.46,5.87,5.87,0,0,1,1.77,2.74,6.4,6.4,0,0,1,.05,3.48,9,9,0,0,1-2.1,3.71,13.43,13.43,0,0,1-1.91,1.76,13.75,13.75,0,0,1-2.3,1.41,13.46,13.46,0,0,1-2.63.94l-1.27-3.71a10.84,10.84,0,0,0,3.63-1.55,6.63,6.63,0,0,0,1.33-1.13,5.91,5.91,0,0,0,.88-1.33,2.91,2.91,0,0,0,.3-1.51,2.06,2.06,0,0,0-.77-1.4,1.93,1.93,0,0,0-1.2-.47,4.35,4.35,0,0,0-1.53.22,9.68,9.68,0,0,0-1.66.68c-.65.34-1.34.67-2.08,1a10.82,10.82,0,0,1-2.29.7,5.41,5.41,0,0,1-4.82-1.43,6.37,6.37,0,0,1-1.94-2.87,6.08,6.08,0,0,1-.06-3.31,8.44,8.44,0,0,1,1.71-3.32,12.49,12.49,0,0,1,3.38-2.85,15.17,15.17,0,0,1,3.12-1.25Z"/><path class="cls-2" d="M782.92,98.78l11.54-9.85,2.75,3.22-8.21,7,3.08,3.61,7.26-6.2,2.75,3.22-7.26,6.2,3.12,3.65,8.53-7.28,2.74,3.22-11.85,10.12Z"/><path class="cls-2" d="M830.74,91.46l-22.52-3,1.48-.13,7.76,11.17L813.79,102,800.73,82.88l.15-.1L823.07,86l-1,.19-7.91-11.39,3.64-2.49,13.08,19.1Z"/><path class="cls-2" d="M831.37,64.44l13.38-6.74,1.91,3.77-4.83,2.44L849.93,80,846,82l-8.11-16.08-4.64,2.34Z"/><path class="cls-2" d="M858,52.1a12.1,12.1,0,0,1,3.66-.87,7.35,7.35,0,0,1,3.09.4,6.32,6.32,0,0,1,2.43,1.58,7.94,7.94,0,0,1,1.67,2.67,9.45,9.45,0,0,1,.62,2.68,7,7,0,0,1-.33,2.79,6.58,6.58,0,0,1-1.6,2.56,9.17,9.17,0,0,1-3.24,2l-2.92,1.15L864,73.65l-4.08,1.61-8.15-20.69Zm4.72,9.9a3.72,3.72,0,0,0,1.42-.92,2.77,2.77,0,0,0,.66-1.17,3.55,3.55,0,0,0,.12-1.2,3.81,3.81,0,0,0-.23-1,5.26,5.26,0,0,0-.44-.82,3.41,3.41,0,0,0-.82-.89,2.68,2.68,0,0,0-1.3-.53,3.59,3.59,0,0,0-1.84.3l-2.93,1.16,2.46,6.24Zm4.82,1,8.27,6L871,70.86l-8.33-5.81Z"/><path class="cls-2" d="M878.07,68.18l3.33-25,.23-.06,16,19.49L892.72,64,882.11,50.13l2.46-3L882.23,67Zm4.4-9.6,6.43-1.83,2.49,3.12-9.22,2.63Z"/><path class="cls-2" d="M921.78,59.22,902.61,47l1.4.49,2.36,13.39-4.37.75-3.86-22.8.17,0L917.11,51l-1-.26-2.4-13.66,4.35-.74L921.9,59.2Z"/><path class="cls-2" d="M939.47,40.07a16.92,16.92,0,0,0-2.65-1,7.74,7.74,0,0,0-2.49-.29,3.85,3.85,0,0,0-2.19.72,2,2,0,0,0-.7,1.78,1.93,1.93,0,0,0,.71,1.36,6.2,6.2,0,0,0,1.67,1,20,20,0,0,0,2.1.74,18.19,18.19,0,0,1,2,.73,7.13,7.13,0,0,1,1.78,1.12A5.42,5.42,0,0,1,941,48a7.18,7.18,0,0,1,.63,2.67,5.88,5.88,0,0,1-.66,3.19,6.36,6.36,0,0,1-2.41,2.51,8.81,8.81,0,0,1-4.1,1.17,13.21,13.21,0,0,1-5.22-.7,12.4,12.4,0,0,1-2.54-1.18l1.71-3.53a10.49,10.49,0,0,0,1.77.9,10.24,10.24,0,0,0,1.9.55,7.11,7.11,0,0,0,1.73.13,5.89,5.89,0,0,0,1.57-.34,2.86,2.86,0,0,0,1.27-.85,2.09,2.09,0,0,0,.43-1.55,1.84,1.84,0,0,0-.52-1.17,4.55,4.55,0,0,0-1.24-.92,10.3,10.3,0,0,0-1.66-.68c-.7-.21-1.43-.47-2.17-.76a10.44,10.44,0,0,1-2.12-1.11,5.75,5.75,0,0,1-1.66-1.74,5.67,5.67,0,0,1-.77-2.66,6.33,6.33,0,0,1,.63-3.41,6.1,6.1,0,0,1,2.28-2.4A8.37,8.37,0,0,1,933.41,35a12.5,12.5,0,0,1,4.4.34,15.29,15.29,0,0,1,3.1,1.31Z"/><path class="cls-2" d="M948.08,34.47l13.9.24-.07,4.23-9.52-.16-.09,5,8.25.14-.07,4.23-8.25-.14-.15,8.73-4.38-.07Z"/><path class="cls-2" d="M967.09,46a11,11,0,0,1,1.38-4.22,11.68,11.68,0,0,1,2.85-3.33,11.49,11.49,0,0,1,3.88-2,11.09,11.09,0,0,1,8.73,1,11.71,11.71,0,0,1,3.32,2.91,11.54,11.54,0,0,1,2,3.9,11.28,11.28,0,0,1-1,8.71,11.65,11.65,0,0,1-6.79,5.28,11.34,11.34,0,0,1-14-7.76A11,11,0,0,1,967.09,46Zm4.5.53a7.11,7.11,0,0,0,.2,2.81A7.27,7.27,0,0,0,973,51.8a6.8,6.8,0,0,0,4.66,2.64,6.4,6.4,0,0,0,5-1.5,7.26,7.26,0,0,0,1.67-2.08,7.07,7.07,0,0,0,.84-2.69,7.3,7.3,0,0,0-.19-2.85,7.4,7.4,0,0,0-1.17-2.43,6.57,6.57,0,0,0-2-1.78,6.71,6.71,0,0,0-7.68.63,6.83,6.83,0,0,0-1.71,2.09A7.64,7.64,0,0,0,971.59,46.56Z"/><path class="cls-2" d="M1005.43,40.74a11.94,11.94,0,0,1,3.5,1.35,7.64,7.64,0,0,1,2.33,2.08,6.39,6.39,0,0,1,1.1,2.68,8.07,8.07,0,0,1-.13,3.15,9.55,9.55,0,0,1-1,2.55,7,7,0,0,1-1.86,2.12,6.46,6.46,0,0,1-2.77,1.2,9.1,9.1,0,0,1-3.8-.17L999.72,55l-1.59,6.89-4.27-1,5-21.67Zm-1.72,10.83a3.76,3.76,0,0,0,1.69,0,3,3,0,0,0,1.21-.59,3.66,3.66,0,0,0,1.16-1.9,5.16,5.16,0,0,0,.11-.93,3.7,3.7,0,0,0-.17-1.2,2.74,2.74,0,0,0-.77-1.17,3.64,3.64,0,0,0-1.7-.79l-3.06-.71-1.51,6.54Zm3.39,3.57,3.43,9.6-5-1.15L1002,54.08Z"/><path class="cls-2" d="M1015.22,66,1023,44.19h0l5.77,20.65-1.62-1,17.35-12,0,0-7.75,21.81-4.13-1.46,4.44-12.5-.5,2.22-10.67,7.56-.06,0-3.7-12.67,1.41-1.71-4.39,12.33Z"/><path class="cls-2" d="M1040.86,75.47l19.2-16.32.22.11-1.2,25.17-4.56-2.24L1056,64.77l3.81-.55-15,13.15Zm9.7-4.19,6,3-.24,4-8.6-4.23Z"/><path class="cls-2" d="M1076.89,93.15a8.12,8.12,0,0,1-1.57,0,12.46,12.46,0,0,1-2.53-.48,10.78,10.78,0,0,1-2.86-1.33,12.32,12.32,0,0,1-3.51-3.27,10.2,10.2,0,0,1-1.72-3.9,10.78,10.78,0,0,1,0-4.16,12.22,12.22,0,0,1,1.58-4,13.88,13.88,0,0,1,3.09-3.57,10.65,10.65,0,0,1,3.79-2,9.93,9.93,0,0,1,4.17-.25,11.23,11.23,0,0,1,4.21,1.59,11.86,11.86,0,0,1,3.06,2.58,13.83,13.83,0,0,1,1.72,2.57l-3.63,2.63a13.65,13.65,0,0,0-1.09-2.06,6.47,6.47,0,0,0-2.14-2,6,6,0,0,0-2.35-.82,6.45,6.45,0,0,0-2.54.21,7.31,7.31,0,0,0-2.37,1.18,7.5,7.5,0,0,0-1.9,2.12,9,9,0,0,0-1.13,2.74,6.41,6.41,0,0,0,0,2.65,5.8,5.8,0,0,0,1,2.35,8,8,0,0,0,5,3,6.88,6.88,0,0,0,2.29,0Z"/><path class="cls-2" d="M1093.63,80.11l3.56,2.56-13,18-3.55-2.57Z"/><path class="cls-2" d="M1096.19,95.57a10.82,10.82,0,0,1,3.49-2.73,11.58,11.58,0,0,1,4.22-1.18,11.31,11.31,0,0,1,4.36.46,11.11,11.11,0,0,1,6.68,5.72,12.19,12.19,0,0,1,1.14,4.27,11.73,11.73,0,0,1-.49,4.37,10.75,10.75,0,0,1-2.16,3.89,10.94,10.94,0,0,1-3.55,2.76,11.18,11.18,0,0,1-4.23,1.13,11.88,11.88,0,0,1-4.35-.52,11,11,0,0,1-3.89-2.19,11.18,11.18,0,0,1-2.78-3.54,11.32,11.32,0,0,1-.65-8.52A11,11,0,0,1,1096.19,95.57Zm3.44,3a7,7,0,0,0-1.08,7.72,6.9,6.9,0,0,0,1.72,2.19,6.31,6.31,0,0,0,2.37,1.31,6.22,6.22,0,0,0,2.61.23,7.61,7.61,0,0,0,6.17-5,7.29,7.29,0,0,0,.38-2.68,6.49,6.49,0,0,0-.64-2.56,6.62,6.62,0,0,0-1.69-2.17,6.7,6.7,0,0,0-2.39-1.34,7,7,0,0,0-2.65-.26,7.22,7.22,0,0,0-2.58.79A7.59,7.59,0,0,0,1099.63,98.52Zm20.11-4.32-6,.18-2-1.67,4.44-1.56Z"/><path class="cls-2" d="M1123,138l-.21-22.72.35,1.44-10,9.27-3-3.27,17-15.64.12.13v22.41l-.34-1,10.15-9.46,3,3.25-17,15.67Z"/><path class="cls-2" d="M1132.5,148.66l18.38-12.54,3.74,5.49a14.77,14.77,0,0,1,2.4,5.28,10.32,10.32,0,0,1-.06,4.64,10.81,10.81,0,0,1-1.89,3.83,13.42,13.42,0,0,1-3,2.88,10.68,10.68,0,0,1-4.18,1.77,10.08,10.08,0,0,1-4.17-.1,10.79,10.79,0,0,1-3.78-1.73,12.38,12.38,0,0,1-3-3.13Zm6,1.23,1.46,2.15a9.81,9.81,0,0,0,2.07,2.25,6.63,6.63,0,0,0,2.38,1.21,5.6,5.6,0,0,0,2.61.05,8.94,8.94,0,0,0,5.26-3.81,6,6,0,0,0,.78-2.65,6.56,6.56,0,0,0-.34-2.35,7.32,7.32,0,0,0-.81-1.68l-2-2.95Z"/><path class="cls-2" d="M1165.28,158.33l2.17,3.81-19.31,11-2.18-3.8Z"/><path class="cls-2" d="M1161.34,194.72A4.44,4.44,0,0,1,1160,194a14,14,0,0,1-1.55-1.42,19.63,19.63,0,0,1-1.49-1.79,11.08,11.08,0,0,1-1.13-1.87,13.86,13.86,0,0,1-1.36-4.78,10.77,10.77,0,0,1,.44-4.31,9.69,9.69,0,0,1,2.07-3.58,11.08,11.08,0,0,1,3.54-2.56,14,14,0,0,1,5.19-1.43,10.65,10.65,0,0,1,4.46.68,10.13,10.13,0,0,1,3.56,2.36,13.17,13.17,0,0,1,2.51,3.62,15.53,15.53,0,0,1,1.24,3.75,13,13,0,0,1,.24,3.23l-4.3.45a9.08,9.08,0,0,0-.07-1.57c-.08-.63-.19-1.26-.33-1.88a8.56,8.56,0,0,0-.53-1.58,10.35,10.35,0,0,0-1.78-2.71,6.07,6.07,0,0,0-2.22-1.54,5.7,5.7,0,0,0-2.65-.34,9.16,9.16,0,0,0-3,.89,7,7,0,0,0-2.32,1.7,5.88,5.88,0,0,0-1.28,2.28,6.59,6.59,0,0,0-.21,2.67,9.11,9.11,0,0,0,.85,2.89,9.55,9.55,0,0,0,.86,1.5,4,4,0,0,0,1,1l2.43-1.15-1.63-3.47,3.83-1.8,3.52,7.49Z"/><path class="cls-2" d="M1182.36,193.86l1.54,4.1-20.82,7.83-1.54-4.1Z"/><path class="cls-2" d="M1186.37,204.7l4.31,14.36-4.06,1.21-1.55-5.18-17.25,5.18-1.26-4.2,17.25-5.17-1.49-5Z"/><path class="cls-2" d="M1169.8,226.69l24.69,5.06,0,.24L1174,246.56l-1-5,14.59-9.61,2.78,2.66-19.62-3.72Zm9.28,5.06,1.38,6.53-3.3,2.27-2-9.37Z"/><path class="cls-2" d="M1196.65,248.59l.49,4.35-17.9,2,1.18,10.39-4.21.48-1.66-14.75Z"/></g><path class="cls-2" d="M749.07,464.47V401.74h18.75a41.19,41.19,0,0,1,16.11,2.81,28.52,28.52,0,0,1,10.69,7.5,30.11,30.11,0,0,1,5.93,10.48,37.78,37.78,0,0,1,1.87,11.68,30.37,30.37,0,0,1-2.51,12.57,28.73,28.73,0,0,1-6.86,9.55A30.11,30.11,0,0,1,783,462.38a35,35,0,0,1-12.1,2.09Zm12.36-11.94h7.33a27.83,27.83,0,0,0,8.52-1.23,18.81,18.81,0,0,0,6.61-3.62,15.81,15.81,0,0,0,4.26-6,25.07,25.07,0,0,0-.51-18.33,16.81,16.81,0,0,0-4.95-6,18.11,18.11,0,0,0-6-2.94,21,21,0,0,0-5.2-.81H761.43Z"/><path class="cls-2" d="M808.22,445.37a19.61,19.61,0,0,1,2.68-10.22,19,19,0,0,1,7.55-7.12,23.3,23.3,0,0,1,11.16-2.6,22.52,22.52,0,0,1,11.08,2.6,18,18,0,0,1,7.2,7.12,20.62,20.62,0,0,1,2.52,10.22,20.9,20.9,0,0,1-2.52,10.28,18.2,18.2,0,0,1-7.2,7.2,22.55,22.55,0,0,1-11.25,2.64,24.35,24.35,0,0,1-11-2.39,17.85,17.85,0,0,1-7.54-6.9A20.54,20.54,0,0,1,808.22,445.37Zm12,.09a11.32,11.32,0,0,0,1.19,5.24,9.52,9.52,0,0,0,3.24,3.71,8.1,8.1,0,0,0,4.6,1.36,8.53,8.53,0,0,0,4.86-1.36,9,9,0,0,0,3.15-3.71,13,13,0,0,0,0-10.52,9,9,0,0,0-3.15-3.67,8.53,8.53,0,0,0-4.86-1.36,8.1,8.1,0,0,0-4.6,1.36,9.54,9.54,0,0,0-3.24,3.67A11.23,11.23,0,0,0,820.24,445.46Z"/><path class="cls-2" d="M889.7,461.14a19.51,19.51,0,0,1-6.18,3.16,23.85,23.85,0,0,1-7.29,1.19,24.79,24.79,0,0,1-11.12-2.34,17.21,17.21,0,0,1-7.33-6.74,20.47,20.47,0,0,1-2.6-10.61A19.3,19.3,0,0,1,858,435.19a18.55,18.55,0,0,1,7.38-6.69,20.87,20.87,0,0,1,9.58-2.3,25.27,25.27,0,0,1,8.74,1.36,21.09,21.09,0,0,1,6.35,3.58l-5.79,7.67a17.9,17.9,0,0,0-3.29-1.92,11.45,11.45,0,0,0-4.9-1,8.34,8.34,0,0,0-4.51,1.28,9.11,9.11,0,0,0-3.24,3.5,10.57,10.57,0,0,0-1.2,5.11,10.2,10.2,0,0,0,1.28,5,9.4,9.4,0,0,0,3.54,3.62,10.35,10.35,0,0,0,5.33,1.32,11.4,11.4,0,0,0,3.62-.55,8.38,8.38,0,0,0,2.85-1.58Z"/><path class="cls-2" d="M899.16,464.47V401.74h18.75A41.19,41.19,0,0,1,934,404.55a28.56,28.56,0,0,1,10.7,7.5,30.24,30.24,0,0,1,5.92,10.48,37.78,37.78,0,0,1,1.87,11.68A30.21,30.21,0,0,1,950,446.78a28.73,28.73,0,0,1-6.86,9.55,30.11,30.11,0,0,1-10.06,6.05,35,35,0,0,1-12.1,2.09Zm12.36-11.94h7.33a27.83,27.83,0,0,0,8.52-1.23,18.81,18.81,0,0,0,6.61-3.62,15.81,15.81,0,0,0,4.26-6,25.07,25.07,0,0,0-.51-18.33,16.81,16.81,0,0,0-5-6,18.11,18.11,0,0,0-6-2.94,20.88,20.88,0,0,0-5.19-.81H911.52Z"/><path class="cls-2" d="M961,414a5.39,5.39,0,0,1,2.09-4.35,7,7,0,0,1,4.47-1.7,6.63,6.63,0,0,1,4.39,1.7,5.46,5.46,0,0,1,2,4.35,5.31,5.31,0,0,1-2,4.3,6.7,6.7,0,0,1-4.39,1.67,7,7,0,0,1-4.47-1.67A5.24,5.24,0,0,1,961,414Zm.26,13.21h11.93v37.25H961.21Z"/><path class="cls-2" d="M1003,483.22a26,26,0,0,1-8.48-1.2,22.89,22.89,0,0,1-5.84-2.89q-2.39-1.71-4.26-3.24l7-8.18a34.37,34.37,0,0,0,4.56,3.45,12.55,12.55,0,0,0,6.86,1.66,13.92,13.92,0,0,0,5.24-1A9.32,9.32,0,0,0,1012,469a7.25,7.25,0,0,0,1.49-4.68v-8.19l.43,2.14a12.24,12.24,0,0,1-4.94,5.07,19.55,19.55,0,0,1-18.71-.43,19.24,19.24,0,0,1-6.86-7.07,20.14,20.14,0,0,1-2.56-10.19,19.93,19.93,0,0,1,2.73-10.44,20.67,20.67,0,0,1,7.07-7.2,17.47,17.47,0,0,1,9.21-2.64,22.61,22.61,0,0,1,8.39,1.4,13.68,13.68,0,0,1,5.33,3.45l-.43,1.11,1.28-4.09h11v37.25a16.06,16.06,0,0,1-3.07,9.67,21.21,21.21,0,0,1-8.14,6.65A25.61,25.61,0,0,1,1003,483.22Zm-10.14-37.93a10.61,10.61,0,0,0,1.36,5.37,10,10,0,0,0,3.71,3.75,10.21,10.21,0,0,0,5.24,1.36,13.75,13.75,0,0,0,4.39-.64,10.38,10.38,0,0,0,3.41-1.87,10.5,10.5,0,0,0,2.51-3.11V441a8.23,8.23,0,0,0-2.3-3.2,11.14,11.14,0,0,0-3.53-2,13,13,0,0,0-4.48-.73,10.49,10.49,0,0,0-5.24,1.32,9.87,9.87,0,0,0-3.71,3.63A10.13,10.13,0,0,0,992.83,445.29Z"/><path class="cls-2" d="M1035.7,414a5.36,5.36,0,0,1,2.09-4.35,7,7,0,0,1,4.47-1.7,6.65,6.65,0,0,1,4.39,1.7,5.45,5.45,0,0,1,2,4.35,5.3,5.3,0,0,1-2,4.3,6.72,6.72,0,0,1-4.39,1.67,7,7,0,0,1-4.47-1.67A5.21,5.21,0,0,1,1035.7,414Zm.26,13.21h11.93v37.25H1036Z"/><path class="cls-2" d="M1062,410.86h11.93v16.19h9v9.29h-9v28.13H1062V436.34h-5.8v-9.29h5.8Z"/><path class="cls-2" d="M1106,465.49a21,21,0,0,1-9.42-2.09,15.52,15.52,0,0,1-6.69-6.43,25.33,25.33,0,0,1,.08-22,18.73,18.73,0,0,1,6.74-7.12,16.92,16.92,0,0,1,8.86-2.51q5.54,0,8.4,1.83a21.14,21.14,0,0,1,4.73,4.05l-.52,1.45,1.11-5.46h11.08v37.25h-11.93v-8.1l.94,2.56c-.12,0-.46.32-1,1a18.87,18.87,0,0,1-2.51,2.3,16.33,16.33,0,0,1-4.09,2.3A15.41,15.41,0,0,1,1106,465.49Zm3.41-9.72a10.76,10.76,0,0,0,3.83-.64,8.46,8.46,0,0,0,3-1.87,11.2,11.2,0,0,0,2.22-3.11V441a8.43,8.43,0,0,0-2-3.2,9.55,9.55,0,0,0-3.23-2,11.43,11.43,0,0,0-4.18-.73,8.93,8.93,0,0,0-4.73,1.32,9.56,9.56,0,0,0-3.45,3.63,11.4,11.4,0,0,0,.08,10.65,10.26,10.26,0,0,0,3.62,3.75A9.32,9.32,0,0,0,1109.43,455.77Z"/><path class="cls-2" d="M1141,397.22h11.93v67.25H1141Z"/><rect class="cls-1" x="1340" y="-0.83" width="560" height="720" rx="280"/><path class="cls-2" d="M1394.22,309.9h7.51v56h-7.51Z"/><path class="cls-2" d="M1421,333.84l.62,7.83-.31-1.24a12.32,12.32,0,0,1,5-5.7,15.16,15.16,0,0,1,8.06-2.13,10.59,10.59,0,0,1,7.48,2.68,9.24,9.24,0,0,1,3,6.93v23.71h-7.28V344.77a6.74,6.74,0,0,0-1.51-4.3,5.58,5.58,0,0,0-4.46-1.67,8.7,8.7,0,0,0-5,1.55,10.52,10.52,0,0,0-3.52,4.26,14.61,14.61,0,0,0-1.28,6.28v15h-7.21V333.84Z"/><path class="cls-2" d="M1458.91,319.74h7.21V334H1475v5.65h-8.83v26.27h-7.21V339.65H1453V334h5.89Z"/><path class="cls-2" d="M1497,366.7a19.15,19.15,0,0,1-9.46-2.21,15.45,15.45,0,0,1-6.08-6.05,17.76,17.76,0,0,1-2.13-8.79,16,16,0,0,1,2.4-8.6,18.11,18.11,0,0,1,6.43-6.2,17.66,17.66,0,0,1,9-2.32,15.27,15.27,0,0,1,10.54,3.71,18.83,18.83,0,0,1,5.66,10.23l-26.43,9.3-1.7-4.26,21.69-7.91-1.55,1a10.66,10.66,0,0,0-3.09-4.45,8.28,8.28,0,0,0-5.66-1.9,9.89,9.89,0,0,0-5.27,1.43,10.08,10.08,0,0,0-3.64,3.91,12.86,12.86,0,0,0,.08,11.51,10.17,10.17,0,0,0,3.83,3.95,10.72,10.72,0,0,0,5.54,1.44,11,11,0,0,0,4.07-.78,16.42,16.42,0,0,0,3.68-2l3.33,5.34a22.08,22.08,0,0,1-5.38,2.64A18.28,18.28,0,0,1,1497,366.7Z"/><path class="cls-2" d="M1536.24,381.8A22,22,0,0,1,1530,381a18.32,18.32,0,0,1-4.92-2.28,34.94,34.94,0,0,1-4.22-3.34l4.19-4.88a22,22,0,0,0,5.19,3.72,12.93,12.93,0,0,0,5.88,1.32,14.29,14.29,0,0,0,6.17-1.2,8.88,8.88,0,0,0,3.83-3.33,9.21,9.21,0,0,0,1.32-4.93l.08-8.67.61,1.39a12.18,12.18,0,0,1-5,5.62,16.32,16.32,0,0,1-8.83,2.29,15.21,15.21,0,0,1-8.1-2.25,17.64,17.64,0,0,1-5.77-23.6,17.55,17.55,0,0,1,6.12-6.08,15.94,15.94,0,0,1,8.29-2.24,17.4,17.4,0,0,1,7.79,1.74,12.07,12.07,0,0,1,5.15,4.45l-.39,1.32.77-6.2h6.59v32.31a14.52,14.52,0,0,1-2.25,7.91,15.69,15.69,0,0,1-6.35,5.65A21.4,21.4,0,0,1,1536.24,381.8Zm-11-32.23a11.16,11.16,0,0,0,1.47,5.66,10.87,10.87,0,0,0,9.61,5.5,12.19,12.19,0,0,0,5.15-1.05,11,11,0,0,0,3.84-2.86,10.59,10.59,0,0,0,2.17-4.23v-6.35a10.15,10.15,0,0,0-2.33-4.07,11.52,11.52,0,0,0-3.87-2.71,12.36,12.36,0,0,0-5-1,11.4,11.4,0,0,0-5.62,1.4,10.34,10.34,0,0,0-4,3.91A11.23,11.23,0,0,0,1525.24,349.57Z"/><path class="cls-2" d="M1572,333.84l.69,9.3-.38-1.24a13.34,13.34,0,0,1,3.6-5,19.35,19.35,0,0,1,5-3.17,11.7,11.7,0,0,1,4.53-1.13l-.39,7.13a10.88,10.88,0,0,0-6.39,1.4,12.09,12.09,0,0,0-4.34,4.33,11.33,11.33,0,0,0-1.59,5.82v14.64h-7.12V333.84Z"/><path class="cls-2" d="M1605.74,366.7a17.29,17.29,0,0,1-8.17-1.94,14.11,14.11,0,0,1-5.81-5.7,20.55,20.55,0,0,1,.11-18.44,15.54,15.54,0,0,1,6-6,16.59,16.59,0,0,1,8.25-2.09,13.4,13.4,0,0,1,7.59,2.05,14.71,14.71,0,0,1,4.73,4.84l-.47,1.24.7-6.82h6.67v32.08h-7.21v-8.37l.77,1.86a7.35,7.35,0,0,1-1.35,2,16.83,16.83,0,0,1-6.78,4.49A14.8,14.8,0,0,1,1605.74,366.7Zm1.94-6a11.48,11.48,0,0,0,4.88-1,9.57,9.57,0,0,0,3.6-2.83,10.38,10.38,0,0,0,2-4.37v-6.28a9.84,9.84,0,0,0-2.17-4.07,10.83,10.83,0,0,0-3.72-2.71,11.6,11.6,0,0,0-4.8-1,10.31,10.31,0,0,0-5.27,1.4,10.48,10.48,0,0,0-3.84,3.87,11.45,11.45,0,0,0-1.43,5.81,11.16,11.16,0,0,0,1.47,5.66,11,11,0,0,0,3.95,4A10.34,10.34,0,0,0,1607.68,360.73Z"/><path class="cls-2" d="M1649.29,366.7a15.45,15.45,0,0,1-8-2.14,15.11,15.11,0,0,1-5.7-6,18.92,18.92,0,0,1-2.09-9,17.91,17.91,0,0,1,2.21-9.14,14.9,14.9,0,0,1,6-5.81,18,18,0,0,1,8.53-2,16.82,16.82,0,0,1,7.24,1.62,13.1,13.1,0,0,1,5.39,4.5l-.31,2.55V306h7.13v60h-7.21v-8l.77,2a17.43,17.43,0,0,1-5.81,4.85A17.06,17.06,0,0,1,1649.29,366.7Zm2.25-6.13a11.93,11.93,0,0,0,5.11-1,10.11,10.11,0,0,0,3.72-2.91,11.27,11.27,0,0,0,2.09-4.41v-6a9.64,9.64,0,0,0-2.21-4.07,12,12,0,0,0-3.79-2.78,11.36,11.36,0,0,0-4.92-1.05,10.5,10.5,0,0,0-5.39,1.43,10.93,10.93,0,0,0-3.91,3.91,11.77,11.77,0,0,0,0,11.43,11.22,11.22,0,0,0,4,4A10,10,0,0,0,1651.54,360.57Z"/><path class="cls-2" d="M1694,366.7a17.3,17.3,0,0,1-8.18-1.94,14.17,14.17,0,0,1-5.81-5.7,20.51,20.51,0,0,1,.12-18.44,15.45,15.45,0,0,1,6-6,16.62,16.62,0,0,1,8.25-2.09,13.46,13.46,0,0,1,7.6,2.05,14.77,14.77,0,0,1,4.72,4.84l-.46,1.24.69-6.82h6.67v32.08h-7.21v-8.37l.78,1.86a7.69,7.69,0,0,1-1.36,2,16.83,16.83,0,0,1-6.78,4.49A14.74,14.74,0,0,1,1694,366.7Zm1.93-6a11.45,11.45,0,0,0,4.88-1,9.68,9.68,0,0,0,3.61-2.83,10.49,10.49,0,0,0,2-4.37v-6.28a9.73,9.73,0,0,0-2.17-4.07,10.83,10.83,0,0,0-3.72-2.71,11.57,11.57,0,0,0-4.8-1,10.31,10.31,0,0,0-5.27,1.4,10.48,10.48,0,0,0-3.84,3.87,11.45,11.45,0,0,0-1.43,5.81,11.16,11.16,0,0,0,1.47,5.66,10.94,10.94,0,0,0,4,4A10.28,10.28,0,0,0,1695.93,360.73Z"/><path class="cls-2" d="M1768.84,363a17,17,0,0,1-5.19,2.71,19,19,0,0,1-6,1,19.33,19.33,0,0,1-9.22-2.1,15.17,15.17,0,0,1-6.16-5.85,17.2,17.2,0,0,1-2.21-8.87,16.55,16.55,0,0,1,2.36-8.91,16.26,16.26,0,0,1,6.2-5.85,17.22,17.22,0,0,1,8.25-2.05,20.76,20.76,0,0,1,6.94,1.08,16.49,16.49,0,0,1,5.23,3l-3.57,4.65a14.82,14.82,0,0,0-3.41-1.94,11.57,11.57,0,0,0-4.57-.85,9.71,9.71,0,0,0-5.15,1.43,10.28,10.28,0,0,0-3.72,3.91,11.52,11.52,0,0,0-1.35,5.58,11.06,11.06,0,0,0,1.39,5.46,10.23,10.23,0,0,0,3.87,4,11.18,11.18,0,0,0,5.66,1.43,11.5,11.5,0,0,0,3.84-.62,11,11,0,0,0,3.13-1.7Z"/><path class="cls-2" d="M1773.8,349.57a16.73,16.73,0,0,1,2.29-8.68,16.5,16.5,0,0,1,6.31-6.12,20,20,0,0,1,18.37,0,15.92,15.92,0,0,1,6.12,6.12,17.55,17.55,0,0,1,2.17,8.68,17.73,17.73,0,0,1-2.17,8.72,15.73,15.73,0,0,1-6.16,6.16,18.54,18.54,0,0,1-9.26,2.25,19.06,19.06,0,0,1-9.11-2.14,15.71,15.71,0,0,1-6.27-6A17.27,17.27,0,0,1,1773.8,349.57Zm7.21.08a11.39,11.39,0,0,0,1.39,5.62,10.69,10.69,0,0,0,3.76,4,9.69,9.69,0,0,0,5.23,1.47,10,10,0,0,0,9.06-5.46,12.62,12.62,0,0,0,0-11.24,10.35,10.35,0,0,0-3.68-4,9.82,9.82,0,0,0-5.38-1.51,9.52,9.52,0,0,0-5.31,1.55,11,11,0,0,0-3.72,4.07A11.53,11.53,0,0,0,1781,349.65Z"/><path class="cls-2" d="M1823.7,333.84l.62,7.83-.31-1.24a12.29,12.29,0,0,1,5-5.7,15.12,15.12,0,0,1,8-2.13,10.59,10.59,0,0,1,7.48,2.68,9.2,9.2,0,0,1,3,6.93v23.71h-7.28V344.77a6.69,6.69,0,0,0-1.51-4.3,5.58,5.58,0,0,0-4.46-1.67,8.67,8.67,0,0,0-5,1.55,10.55,10.55,0,0,0-3.53,4.26,14.61,14.61,0,0,0-1.28,6.28v15h-7.2V333.84Z"/><path class="cls-2" d="M1562.18,585.92q3.16-3.07,6-6c1.92-2,3.64-3.9,5.18-5.75a30.48,30.48,0,0,0,3.65-5.38,11,11,0,0,0,1.33-5,6.63,6.63,0,0,0-.54-2.8,5.76,5.76,0,0,0-1.41-1.91,6,6,0,0,0-2-1.11,6.84,6.84,0,0,0-2.24-.38,6.58,6.58,0,0,0-2.77.53,5.22,5.22,0,0,0-1.86,1.36,5.42,5.42,0,0,0-1,1.78,5.7,5.7,0,0,0-.33,1.89,8.33,8.33,0,0,0,.5,3,6.78,6.78,0,0,0,1.44,2.3l-3,2.63a6.44,6.44,0,0,1-2-2.08A11.16,11.16,0,0,1,1562,566a10.56,10.56,0,0,1-.43-2.8,10.08,10.08,0,0,1,1.32-5,9.74,9.74,0,0,1,3.86-3.8,12.53,12.53,0,0,1,6.23-1.44,10.15,10.15,0,0,1,5.45,1.44,10,10,0,0,1,3.62,3.8,10.56,10.56,0,0,1,1.29,5.18,12.49,12.49,0,0,1-1,4.85,24.05,24.05,0,0,1-2.65,4.72,54.51,54.51,0,0,1-3.67,4.58q-2,2.26-4,4.54l-2.09-.69h14.48v4.61Z"/><path class="cls-2" d="M1605,586.07a13.38,13.38,0,0,1-5.55-1.14,12.07,12.07,0,0,1-4.34-3.3,15.31,15.31,0,0,1-2.8-5.23,22.44,22.44,0,0,1-1-6.89,25.06,25.06,0,0,1,.94-7.27,13.93,13.93,0,0,1,2.75-5.18,11.23,11.23,0,0,1,4.34-3.1,15,15,0,0,1,5.65-1,13.18,13.18,0,0,1,5.53,1.14,12.17,12.17,0,0,1,4.32,3.3,15.69,15.69,0,0,1,2.82,5.21,21.75,21.75,0,0,1,1,6.92,22.16,22.16,0,0,1-1,7,15.34,15.34,0,0,1-2.82,5.2,11.92,11.92,0,0,1-4.32,3.25A13.33,13.33,0,0,1,1605,586.07Zm0-4.62a7.68,7.68,0,0,0,4.84-1.51,9.1,9.1,0,0,0,3-4.24,18.37,18.37,0,0,0,1-6.29,17.78,17.78,0,0,0-1-6.23,8.94,8.94,0,0,0-3-4.14,7.79,7.79,0,0,0-4.84-1.49,7.58,7.58,0,0,0-4.81,1.52,9.11,9.11,0,0,0-2.9,4.19,20.73,20.73,0,0,0,0,12.47,9.17,9.17,0,0,0,2.9,4.21A7.57,7.57,0,0,0,1605,581.45Z"/><path class="cls-2" d="M1626.05,585.92q3.17-3.07,6-6c1.92-2,3.64-3.9,5.18-5.75a30.48,30.48,0,0,0,3.65-5.38,11,11,0,0,0,1.33-5,6.63,6.63,0,0,0-.54-2.8,5.55,5.55,0,0,0-3.37-3,6.83,6.83,0,0,0-2.23-.38,6.6,6.6,0,0,0-2.78.53,5.22,5.22,0,0,0-1.86,1.36,5.42,5.42,0,0,0-1,1.78,5.69,5.69,0,0,0-.32,1.89,8.34,8.34,0,0,0,.49,3,6.78,6.78,0,0,0,1.44,2.3l-3,2.63a6.44,6.44,0,0,1-2-2.08,11.53,11.53,0,0,1-1.24-2.9,10.93,10.93,0,0,1-.42-2.8,10.08,10.08,0,0,1,1.32-5,9.7,9.7,0,0,1,3.87-3.8,12.47,12.47,0,0,1,6.22-1.44,10.15,10.15,0,0,1,5.45,1.44,10,10,0,0,1,3.62,3.8,10.56,10.56,0,0,1,1.29,5.18,12.49,12.49,0,0,1-1,4.85,24.05,24.05,0,0,1-2.65,4.72,54.51,54.51,0,0,1-3.67,4.58q-2,2.26-4,4.54l-2.08-.69h14.47v4.61Z"/><path class="cls-2" d="M1656.05,585.92q3.18-3.07,6-6t5.18-5.75a30.48,30.48,0,0,0,3.65-5.38,11.06,11.06,0,0,0,1.34-5,6.62,6.62,0,0,0-.55-2.8,5.76,5.76,0,0,0-1.41-1.91,6,6,0,0,0-2-1.11,6.83,6.83,0,0,0-2.23-.38,6.63,6.63,0,0,0-2.78.53,5.22,5.22,0,0,0-1.86,1.36,5.42,5.42,0,0,0-1,1.78,5.69,5.69,0,0,0-.32,1.89,8.34,8.34,0,0,0,.49,3,6.78,6.78,0,0,0,1.44,2.3l-3,2.63a6.32,6.32,0,0,1-2-2.08,10.85,10.85,0,0,1-1.24-2.9,11,11,0,0,1-.43-2.8,10.08,10.08,0,0,1,1.32-5,9.7,9.7,0,0,1,3.87-3.8,12.47,12.47,0,0,1,6.22-1.44,10.15,10.15,0,0,1,5.45,1.44,9.93,9.93,0,0,1,3.62,3.8,10.56,10.56,0,0,1,1.29,5.18,12.49,12.49,0,0,1-1,4.85,24.05,24.05,0,0,1-2.65,4.72,54.51,54.51,0,0,1-3.67,4.58q-2,2.26-4,4.54l-2.08-.69h14.48v4.61Z"/><g class="cls-3"><path class="cls-2" d="M1435.38,593.35a2.54,2.54,0,0,1,1.6.92,2.51,2.51,0,0,1,.48,1.72,2.17,2.17,0,0,1-.85,1.65,2.11,2.11,0,0,1-1.83.45,2.58,2.58,0,0,1-1.51-.9,2.64,2.64,0,0,1-.56-1.74,2.09,2.09,0,0,1,.86-1.67A2.17,2.17,0,0,1,1435.38,593.35Z"/><path class="cls-2" d="M1468.07,639a5.57,5.57,0,0,1-1.68-.23,17.32,17.32,0,0,1-2.25-.81,25,25,0,0,1-2.36-1.21,14.41,14.41,0,0,1-2-1.45,17,17,0,0,1-3.67-4.33,12.48,12.48,0,0,1-1.63-4.6,10.24,10.24,0,0,1,.36-4.54,11.32,11.32,0,0,1,2.32-4.1,14.34,14.34,0,0,1,4.54-3.62,11.42,11.42,0,0,1,4.81-1.17,12,12,0,0,1,4.73.94,15.59,15.59,0,0,1,4.26,2.66,18.5,18.5,0,0,1,3.07,3.33,15.56,15.56,0,0,1,1.79,3.21l-4.1,2.26a10.74,10.74,0,0,0-.83-1.58,18.49,18.49,0,0,0-1.25-1.79,9.08,9.08,0,0,0-1.29-1.41,12.6,12.6,0,0,0-3.09-2,7,7,0,0,0-3-.65,6,6,0,0,0-2.83.75,9.58,9.58,0,0,0-2.62,2.18,7.25,7.25,0,0,0-1.53,2.71,6.68,6.68,0,0,0-.18,2.88,7.63,7.63,0,0,0,1.07,2.82,11.56,11.56,0,0,0,2.26,2.61,12.94,12.94,0,0,0,1.58,1.18,5,5,0,0,0,1.46.64l1.9-2.19-3.32-2.88,3-3.44,7.15,6.21Z"/><path class="cls-2" d="M1478.64,635.2a11.26,11.26,0,0,1,3.43-3.34,12.53,12.53,0,0,1,4.49-1.73,13.17,13.17,0,0,1,9.68,2,12.93,12.93,0,0,1,3.63,3.59,13.62,13.62,0,0,1,2,4.54,12.55,12.55,0,0,1,.19,4.84,11.38,11.38,0,0,1-5.22,7.86,12.23,12.23,0,0,1-4.51,1.67A13.71,13.71,0,0,1,1479,649a13.15,13.15,0,0,1-2-4.47,12,12,0,0,1-.17-4.78A11.5,11.5,0,0,1,1478.64,635.2Zm4.32,2.88a7.35,7.35,0,0,0-1.14,2.81,7.75,7.75,0,0,0,1.26,5.74,8.33,8.33,0,0,0,2.28,2.22,7.71,7.71,0,0,0,2.84,1.18,7.1,7.1,0,0,0,2.94,0,7.77,7.77,0,0,0,2.71-1.13,7.81,7.81,0,0,0,3.31-5,7.75,7.75,0,0,0,0-3,7.42,7.42,0,0,0-1.15-2.74,7.93,7.93,0,0,0-2.24-2.19,7.85,7.85,0,0,0-2.89-1.22,7.66,7.66,0,0,0-3,0,7.41,7.41,0,0,0-2.74,1.13A7.59,7.59,0,0,0,1483,638.08Z"/><path class="cls-2" d="M1518,645.18a11.62,11.62,0,0,1,5,4.21,5,5,0,0,1,.06,5.09,5.83,5.83,0,0,1-2.71,2.77,6.94,6.94,0,0,1-3.8.55,13.25,13.25,0,0,1-4.39-1.41l.44-2.62a17.55,17.55,0,0,1,4.61,3.25,9.2,9.2,0,0,1,2.39,3.82,5.1,5.1,0,0,1-.38,3.88,6.79,6.79,0,0,1-2.16,2.61,6.08,6.08,0,0,1-2.77,1,8.83,8.83,0,0,1-3.09-.22,14.52,14.52,0,0,1-3.1-1.15l-7.56-3.83,10.83-21.37ZM1509.84,663a7.13,7.13,0,0,0,1.91.66,3,3,0,0,0,1.67-.14,2.26,2.26,0,0,0,1.14-1.12,2,2,0,0,0,.16-1.69,3.52,3.52,0,0,0-1.09-1.39,9.76,9.76,0,0,0-1.74-1.12l-2.56-1.3-2.36,4.64Zm4.26-8.79a2.7,2.7,0,0,0,2.34.24,2.87,2.87,0,0,0,1.5-1.39,2.11,2.11,0,0,0,.06-2,4,4,0,0,0-1.84-1.63l-2.4-1.22-2.37,4.68Z"/><path class="cls-2" d="M1531.75,651.61l4.63,1.92-9.14,22.14-4.64-1.92Z"/><path class="cls-2" d="M1542.71,656.1l16.52,5.35-1.41,4.33-11.74-3.8-1.58,4.86,10.4,3.37-1.41,4.33-10.39-3.37-1.6,4.92,12.21,4-1.41,4.34-17-5.51Z"/><path class="cls-2" d="M1572.31,664.52a14.4,14.4,0,0,1,4,1.44,8.81,8.81,0,0,1,2.73,2.25,6.92,6.92,0,0,1,1.34,2.88,8,8,0,0,1-.05,3.4,9.51,9.51,0,0,1-1.07,2.77,7.29,7.29,0,0,1-5.17,3.6,10.91,10.91,0,0,1-4.35-.18l-3.52-.75-1.59,7.45-4.9-1,5-23.43Zm-1.61,11.7a4.37,4.37,0,0,0,1.93,0,3.13,3.13,0,0,0,1.36-.64,3.62,3.62,0,0,0,.85-1,3.54,3.54,0,0,0,.42-1.06,4.39,4.39,0,0,0,.09-1,3.68,3.68,0,0,0-.23-1.3,3.08,3.08,0,0,0-.92-1.26,4.41,4.41,0,0,0-2-.85l-3.52-.75-1.51,7.06Zm4,3.84,4.22,10.36-5.71-1.22-4.39-10.26Z"/><path class="cls-2" d="M1608.26,694.62l-17.65-18.17,1.41.92L1590.73,692l-5.06-.48L1588,666.7l.21,0,17.25,18-1.06-.56,1.31-14.87,5,.48-2.37,24.81Z"/><path class="cls-2" d="M1615.9,682.07a11.48,11.48,0,0,1,.87-4.72,12.86,12.86,0,0,1,2.67-4,13.44,13.44,0,0,1,4.06-2.8,13.47,13.47,0,0,1,10.06-.29,13.85,13.85,0,0,1,4.24,2.56,12.57,12.57,0,0,1,3,3.84,11.17,11.17,0,0,1,1.16,4.66,11.34,11.34,0,0,1-.89,4.78,12.33,12.33,0,0,1-2.72,4,13.44,13.44,0,0,1-4.09,2.73,13.86,13.86,0,0,1-10.06.29,12.85,12.85,0,0,1-4.21-2.5,12.36,12.36,0,0,1-2.9-3.8A11.43,11.43,0,0,1,1615.9,682.07Zm5.19-.15a7.35,7.35,0,0,0,.69,3,7.67,7.67,0,0,0,1.77,2.39,7.94,7.94,0,0,0,2.57,1.57,8.09,8.09,0,0,0,3.14.49,7.67,7.67,0,0,0,3-.67,7.46,7.46,0,0,0,2.39-1.71,8.05,8.05,0,0,0,1.56-2.49,7.62,7.62,0,0,0,.5-3,7.51,7.51,0,0,0-.69-3,8,8,0,0,0-1.73-2.41,7.65,7.65,0,0,0-2.52-1.57,8.11,8.11,0,0,0-3.1-.5,8,8,0,0,0-3.06.68,7.79,7.79,0,0,0-2.44,1.71,7.66,7.66,0,0,0-1.59,2.51A7.81,7.81,0,0,0,1621.09,681.92Z"/><path class="cls-2" d="M1662.88,690.65l-4.76-23.47,7.46-1.52a17.74,17.74,0,0,1,6.62-.24,11.57,11.57,0,0,1,4.82,1.94,11.25,11.25,0,0,1,3.15,3.45,13.39,13.39,0,0,1,1.63,4.22,10.76,10.76,0,0,1-2,9,12.24,12.24,0,0,1-3.54,3.07,14.89,14.89,0,0,1-4.65,1.76Zm4-5.46,2.91-.59a11.87,11.87,0,0,0,3.3-1.15,8,8,0,0,0,2.35-1.89,5.89,5.89,0,0,0,1.24-2.59,7.84,7.84,0,0,0,0-3.23,8,8,0,0,0-1.55-3.59,6.62,6.62,0,0,0-2.42-1.85,7.49,7.49,0,0,0-2.62-.61,9.18,9.18,0,0,0-2.13.11l-4,.81Z"/><path class="cls-2" d="M1684.3,661.25l4.81-1.41,6.73,23-4.81,1.41Z"/><path class="cls-2" d="M1722.7,670.57a5.31,5.31,0,0,1-1,1.37,15,15,0,0,1-1.77,1.61,23.53,23.53,0,0,1-2.17,1.53,14.27,14.27,0,0,1-2.24,1.13,17.18,17.18,0,0,1-5.53,1.22,12.46,12.46,0,0,1-4.84-.71,10.3,10.3,0,0,1-3.84-2.43,11.33,11.33,0,0,1-2.54-4,14.18,14.18,0,0,1-1.09-5.71,11.51,11.51,0,0,1,1.22-4.8,11.78,11.78,0,0,1,3-3.75,16,16,0,0,1,4.34-2.52,18.48,18.48,0,0,1,4.38-1.15,15.45,15.45,0,0,1,3.68-.09l.07,4.69a9.4,9.4,0,0,0-1.78,0c-.73,0-1.45.14-2.17.26a10.47,10.47,0,0,0-1.85.49,12.39,12.39,0,0,0-3.24,1.79,7.08,7.08,0,0,0-2,2.33,6.09,6.09,0,0,0-.65,2.85,9.31,9.31,0,0,0,.7,3.34,7.22,7.22,0,0,0,1.68,2.62,6.51,6.51,0,0,0,2.46,1.5,7.61,7.61,0,0,0,3,.37,11,11,0,0,0,3.35-.77,12,12,0,0,0,1.79-.85,5.25,5.25,0,0,0,1.25-1l-1-2.7-4.1,1.59-1.64-4.25,8.83-3.43Z"/><path class="cls-2" d="M1720.15,647.8l4.5-2.21,10.54,21.51-4.5,2.21Z"/><path class="cls-2" d="M1729.32,643.34l14.81-8.66,2.3,3.93-5.34,3.13,9.79,16.74-4.33,2.53-9.79-16.74-5.14,3Z"/><path class="cls-2" d="M1758.17,654.26,1753,627.33l.22-.16,23.84,13.55-4.73,3.38-16.15-10,1.58-4,4.42,21.25Zm1.34-11.61,6.22-4.46,3.75,2.2-8.92,6.39Z"/><path class="cls-2" d="M1765.87,618.78l3.74-3.34,12.92,14.46,8.93-8,3,3.4-12.66,11.31Z"/><path class="cls-2" d="M1806.64,595.16a2.55,2.55,0,0,1,.51-1.77,2.5,2.5,0,0,1,1.55-.88,2.13,2.13,0,0,1,1.81.43,2.08,2.08,0,0,1,.88,1.66,2.54,2.54,0,0,1-2.06,2.65,2.13,2.13,0,0,1-1.83-.43A2.19,2.19,0,0,1,1806.64,595.16Z"/></g><g class="cls-3"><path class="cls-2" d="M1394.2,260.24l-21.4-13.3,0-.24,24.33-6.55-.74,5-17,4-1.69-3.46L1394.83,256Zm-7-8,1-6.61,3.87-1-1.4,9.48Z"/><path class="cls-2" d="M1376.63,230.48l17.08-2.61-1.08,2.35-13.72-9.32,1.2-5.06,20.29,15.27-25,4.49Z"/><path class="cls-2" d="M1401.64,221.35l-18.75-16.84.08-.23,25.1-2.2-1.61,4.82-17.44.93-1.06-3.7,15,13.12Zm-5.45-9,2.11-6.34,4-.29-3,9.08Z"/><path class="cls-2" d="M1418.88,180.2,1398,189.14l1.2-.87,12.39,5.6-1.86,4-21-9.67.07-.17,20.68-8.64-.79.7-12.63-5.72,1.84-4,21,9.68Z"/><path class="cls-2" d="M1428.5,158.33a8.62,8.62,0,0,1,0,1.58,12.79,12.79,0,0,1-.46,2.52,11.12,11.12,0,0,1-1.31,2.88,12.49,12.49,0,0,1-3.23,3.54,10.25,10.25,0,0,1-3.89,1.76,10.78,10.78,0,0,1-4.16.06,12,12,0,0,1-4-1.55,13.56,13.56,0,0,1-3.6-3.05,10.79,10.79,0,0,1-2-3.78,9.91,9.91,0,0,1-.28-4.17,11.11,11.11,0,0,1,1.54-4.21,12,12,0,0,1,2.56-3.09,14,14,0,0,1,2.56-1.74l2.66,3.61a11.91,11.91,0,0,0-2,1.11,6.36,6.36,0,0,0-2,2.15,5.86,5.86,0,0,0-.8,2.36,6.22,6.22,0,0,0,.23,2.53,7.37,7.37,0,0,0,1.2,2.37,7.53,7.53,0,0,0,2.14,1.88,9,9,0,0,0,2.75,1.1,6.4,6.4,0,0,0,2.65,0,6,6,0,0,0,2.34-1,7.25,7.25,0,0,0,1.86-2.11,7.45,7.45,0,0,0,1.08-2.91,7,7,0,0,0,0-2.28Z"/><path class="cls-2" d="M1415.43,141.38l9-12.2,3.4,2.52-6.42,8.67,3.82,2.82,5.68-7.68,3.4,2.52-5.68,7.68,3.86,2.86,6.67-9,3.4,2.52-9.27,12.53Z"/><path class="cls-2" d="M1441.67,117.46a17.79,17.79,0,0,0-2.58,1.17,7.52,7.52,0,0,0-2,1.55,3.83,3.83,0,0,0-1.06,2,2,2,0,0,0,.75,1.75,1.9,1.9,0,0,0,1.46.47,5.91,5.91,0,0,0,1.89-.46,20.39,20.39,0,0,0,2-.95,16.7,16.7,0,0,1,1.92-.86,7,7,0,0,1,2.06-.46,5.64,5.64,0,0,1,2.18.32,7.1,7.1,0,0,1,2.32,1.46,5.87,5.87,0,0,1,1.77,2.74,6.4,6.4,0,0,1,0,3.48,9.07,9.07,0,0,1-2.1,3.71,13.43,13.43,0,0,1-1.91,1.76,13.75,13.75,0,0,1-2.3,1.41,13.46,13.46,0,0,1-2.63.94l-1.27-3.71a10.65,10.65,0,0,0,1.89-.61,11.14,11.14,0,0,0,1.74-.94,6.55,6.55,0,0,0,1.32-1.13,5.62,5.62,0,0,0,.89-1.33,2.91,2.91,0,0,0,.3-1.51,2,2,0,0,0-.78-1.4,1.88,1.88,0,0,0-1.19-.47,4.29,4.29,0,0,0-1.53.22,9.68,9.68,0,0,0-1.66.68c-.65.34-1.34.67-2.08,1a10.82,10.82,0,0,1-2.29.7,5.41,5.41,0,0,1-4.82-1.43,6.37,6.37,0,0,1-1.94-2.87,6.18,6.18,0,0,1-.07-3.31,8.47,8.47,0,0,1,1.72-3.32,12.62,12.62,0,0,1,3.37-2.85,15.25,15.25,0,0,1,3.13-1.25Z"/><path class="cls-2" d="M1452.92,98.78l11.54-9.85,2.75,3.22-8.21,7,3.08,3.61,7.26-6.2,2.75,3.22-7.26,6.2,3.12,3.65,8.53-7.28,2.74,3.22-11.85,10.12Z"/><path class="cls-2" d="M1500.74,91.46l-22.52-3,1.48-.13,7.76,11.17-3.67,2.51-13.06-19.08.15-.1,22.19,3.2-1,.19-7.91-11.39,3.64-2.49,13.08,19.1Z"/><path class="cls-2" d="M1501.37,64.44l13.38-6.74,1.91,3.77-4.83,2.44,8.1,16.08L1516,82l-8.1-16.08-4.65,2.34Z"/><path class="cls-2" d="M1528,52.1a12.1,12.1,0,0,1,3.66-.87,7.42,7.42,0,0,1,3.1.4,6.36,6.36,0,0,1,2.42,1.58,7.94,7.94,0,0,1,1.67,2.67,9.45,9.45,0,0,1,.62,2.68,7,7,0,0,1-.33,2.79,6.58,6.58,0,0,1-1.6,2.56,9.17,9.17,0,0,1-3.24,2l-2.92,1.15,2.59,6.58-4.08,1.61-8.15-20.69Zm4.72,9.9a3.72,3.72,0,0,0,1.42-.92,2.77,2.77,0,0,0,.66-1.17,3.55,3.55,0,0,0,.12-1.2,3.81,3.81,0,0,0-.23-1,5.26,5.26,0,0,0-.44-.82,3.59,3.59,0,0,0-.82-.89,2.68,2.68,0,0,0-1.3-.53,3.61,3.61,0,0,0-1.84.3l-2.93,1.16,2.46,6.24Zm4.82,1,8.27,6-4.75,1.88-8.34-5.81Z"/><path class="cls-2" d="M1548.07,68.18l3.33-25,.23-.06,16,19.49L1562.72,64l-10.61-13.89,2.46-3L1552.23,67Zm4.4-9.6,6.43-1.83,2.49,3.12-9.22,2.63Z"/><path class="cls-2" d="M1591.78,59.22,1572.61,47l1.4.49,2.36,13.39-4.37.75-3.87-22.8.18,0L1587.11,51l-1-.26-2.41-13.66,4.36-.74,3.86,22.83Z"/><path class="cls-2" d="M1609.47,40.07a16.92,16.92,0,0,0-2.65-1,7.74,7.74,0,0,0-2.49-.29,3.82,3.82,0,0,0-2.19.72,2,2,0,0,0-.7,1.78,1.93,1.93,0,0,0,.71,1.36,6.2,6.2,0,0,0,1.67,1,20,20,0,0,0,2.1.74,18.19,18.19,0,0,1,2,.73,7.13,7.13,0,0,1,1.78,1.12A5.42,5.42,0,0,1,1611,48a7.18,7.18,0,0,1,.63,2.67,5.88,5.88,0,0,1-.66,3.19,6.36,6.36,0,0,1-2.41,2.51,8.81,8.81,0,0,1-4.1,1.17,13.21,13.21,0,0,1-5.22-.7,12.4,12.4,0,0,1-2.54-1.18l1.71-3.53a10.49,10.49,0,0,0,1.77.9,10.24,10.24,0,0,0,1.9.55,7.11,7.11,0,0,0,1.73.13,5.89,5.89,0,0,0,1.57-.34,2.86,2.86,0,0,0,1.27-.85,2.09,2.09,0,0,0,.43-1.55,1.84,1.84,0,0,0-.52-1.17,4.55,4.55,0,0,0-1.24-.92,10.3,10.3,0,0,0-1.66-.68c-.7-.21-1.43-.47-2.18-.76a10.63,10.63,0,0,1-2.11-1.11,5.75,5.75,0,0,1-1.66-1.74,5.56,5.56,0,0,1-.77-2.66,6.33,6.33,0,0,1,.63-3.41,6.1,6.1,0,0,1,2.28-2.4,8.32,8.32,0,0,1,3.56-1.16,12.5,12.5,0,0,1,4.4.34,15.29,15.29,0,0,1,3.1,1.31Z"/><path class="cls-2" d="M1618.08,34.47l13.9.24-.07,4.23-9.52-.16-.09,5,8.25.14-.07,4.23-8.25-.14-.15,8.73-4.38-.07Z"/><path class="cls-2" d="M1637.09,46a11,11,0,0,1,1.38-4.22,11.68,11.68,0,0,1,2.85-3.33,11.39,11.39,0,0,1,3.88-2,11.1,11.1,0,0,1,8.73,1,11.85,11.85,0,0,1,3.32,2.91,11.54,11.54,0,0,1,2,3.9,11.28,11.28,0,0,1-1,8.71,11.63,11.63,0,0,1-6.8,5.28,11.49,11.49,0,0,1-8.73-1,11.4,11.4,0,0,1-3.29-2.84,11.26,11.26,0,0,1-2-3.88A11,11,0,0,1,1637.09,46Zm4.5.53a7.17,7.17,0,0,0,1.4,5.24,6.8,6.8,0,0,0,4.66,2.64,6.4,6.4,0,0,0,5-1.5,7.61,7.61,0,0,0,2.32-7.62,7.4,7.4,0,0,0-1.17-2.43,6.57,6.57,0,0,0-2-1.78,6.7,6.7,0,0,0-2.6-.85,6.57,6.57,0,0,0-2.74.22,6.65,6.65,0,0,0-2.34,1.26,6.83,6.83,0,0,0-1.71,2.09A7.64,7.64,0,0,0,1641.59,46.56Z"/><path class="cls-2" d="M1675.43,40.74a11.94,11.94,0,0,1,3.5,1.35,7.64,7.64,0,0,1,2.33,2.08,6.52,6.52,0,0,1,1.1,2.68,7.9,7.9,0,0,1-.14,3.15,9.52,9.52,0,0,1-1,2.55,7,7,0,0,1-1.86,2.12,6.46,6.46,0,0,1-2.77,1.2,9.1,9.1,0,0,1-3.8-.17l-3.07-.71-1.59,6.89-4.27-1,5-21.67Zm-1.72,10.83a3.76,3.76,0,0,0,1.69,0,3,3,0,0,0,1.21-.59,3.66,3.66,0,0,0,1.16-1.9,5.16,5.16,0,0,0,.11-.93,3.7,3.7,0,0,0-.17-1.2,2.74,2.74,0,0,0-.77-1.17,3.64,3.64,0,0,0-1.7-.79l-3.06-.71-1.51,6.54Zm3.39,3.57,3.43,9.6-5-1.15L1672,54.08Z"/><path class="cls-2" d="M1685.22,66,1693,44.19h0l5.77,20.65-1.62-1,17.35-12,.06,0-7.76,21.81-4.13-1.46,4.44-12.5-.5,2.22-10.67,7.56-.06,0-3.7-12.67,1.41-1.71-4.39,12.33Z"/><path class="cls-2" d="M1710.86,75.47l19.2-16.32.22.11-1.2,25.17-4.56-2.24L1726,64.77l3.81-.55-15,13.15Zm9.7-4.19,6,3-.24,4-8.6-4.23Z"/><path class="cls-2" d="M1746.89,93.15a9,9,0,0,1-1.57,0,12.25,12.25,0,0,1-2.52-.48,11.15,11.15,0,0,1-2.87-1.33,12.32,12.32,0,0,1-3.51-3.27,10.26,10.26,0,0,1-1.72-3.9,10.78,10.78,0,0,1,0-4.16,12,12,0,0,1,1.59-4,13.66,13.66,0,0,1,3.08-3.57,10.65,10.65,0,0,1,3.79-2,9.93,9.93,0,0,1,4.17-.25,11.37,11.37,0,0,1,4.21,1.58,11.89,11.89,0,0,1,3.06,2.59,13.83,13.83,0,0,1,1.72,2.57l-3.63,2.63a12.76,12.76,0,0,0-1.09-2.06,6.47,6.47,0,0,0-2.14-2,6,6,0,0,0-2.35-.82,6.64,6.64,0,0,0-2.54.2,7.34,7.34,0,0,0-2.37,1.19,7.5,7.5,0,0,0-1.9,2.12,9,9,0,0,0-1.13,2.74,6.41,6.41,0,0,0,0,2.65,6,6,0,0,0,1,2.35,8,8,0,0,0,5,3,6.83,6.83,0,0,0,2.28,0Z"/><path class="cls-2" d="M1763.63,80.11l3.56,2.56-13,18-3.55-2.57Z"/><path class="cls-2" d="M1766.19,95.57a10.82,10.82,0,0,1,3.49-2.73,11.58,11.58,0,0,1,4.22-1.18,11.38,11.38,0,0,1,4.37.46,11.13,11.13,0,0,1,6.67,5.72,12.19,12.19,0,0,1,1.14,4.27,11.73,11.73,0,0,1-.49,4.37,10.75,10.75,0,0,1-2.16,3.89,10.94,10.94,0,0,1-3.55,2.76,11.18,11.18,0,0,1-4.23,1.13,11.88,11.88,0,0,1-4.35-.52,11,11,0,0,1-3.89-2.19,11.18,11.18,0,0,1-2.78-3.54,11.32,11.32,0,0,1-.65-8.52A11,11,0,0,1,1766.19,95.57Zm3.43,3a7.22,7.22,0,0,0-1.75,5.13,7.05,7.05,0,0,0,.68,2.59,6.79,6.79,0,0,0,1.73,2.19,6.4,6.4,0,0,0,5,1.54,7.61,7.61,0,0,0,6.17-5,7.29,7.29,0,0,0,.38-2.68,6.51,6.51,0,0,0-2.33-4.73,6.7,6.7,0,0,0-2.39-1.34,7,7,0,0,0-2.65-.26,7.34,7.34,0,0,0-2.59.79A7.86,7.86,0,0,0,1769.62,98.52Zm20.12-4.32-6,.18-2-1.67,4.45-1.56Z"/><path class="cls-2" d="M1793,138l-.21-22.72.35,1.44-10,9.27-3-3.27,17-15.64.12.13v22.41l-.34-1,10.15-9.46,3,3.25-17,15.67Z"/><path class="cls-2" d="M1802.5,148.66l18.38-12.54,3.74,5.49a14.77,14.77,0,0,1,2.4,5.28,10.32,10.32,0,0,1-.06,4.64,10.81,10.81,0,0,1-1.89,3.83,13.42,13.42,0,0,1-3,2.88,10.68,10.68,0,0,1-4.18,1.77,10.08,10.08,0,0,1-4.17-.1,10.79,10.79,0,0,1-3.78-1.73,12.38,12.38,0,0,1-3-3.13Zm6,1.23,1.46,2.15a9.59,9.59,0,0,0,2.07,2.25,6.63,6.63,0,0,0,2.38,1.21,5.6,5.6,0,0,0,2.61.05,8.94,8.94,0,0,0,5.26-3.81,5.87,5.87,0,0,0,.77-2.65,6.34,6.34,0,0,0-.33-2.35,7.32,7.32,0,0,0-.81-1.68l-2-2.95Z"/><path class="cls-2" d="M1835.28,158.33l2.17,3.81-19.31,11-2.18-3.8Z"/><path class="cls-2" d="M1831.33,194.72a4.54,4.54,0,0,1-1.3-.75,14,14,0,0,1-1.56-1.42,21.41,21.41,0,0,1-1.49-1.79,11.78,11.78,0,0,1-1.13-1.87,14.31,14.31,0,0,1-1.36-4.78,11,11,0,0,1,.45-4.31,9.69,9.69,0,0,1,2.07-3.58,11,11,0,0,1,3.54-2.56,14,14,0,0,1,5.19-1.43,10.68,10.68,0,0,1,4.46.68,10.13,10.13,0,0,1,3.56,2.36,12.93,12.93,0,0,1,2.5,3.62,15.15,15.15,0,0,1,1.25,3.75,12.93,12.93,0,0,1,.23,3.23l-4.29.45a10.22,10.22,0,0,0-.07-1.57c-.08-.63-.19-1.26-.33-1.88a8.56,8.56,0,0,0-.53-1.58,10.35,10.35,0,0,0-1.78-2.71,6.15,6.15,0,0,0-2.22-1.54,5.72,5.72,0,0,0-2.65-.34,9.16,9.16,0,0,0-3,.89,7,7,0,0,0-2.32,1.7,5.88,5.88,0,0,0-1.28,2.28,6.77,6.77,0,0,0-.22,2.67,9.4,9.4,0,0,0,.86,2.89,9.54,9.54,0,0,0,.85,1.5,4.15,4.15,0,0,0,1,1l2.43-1.15-1.63-3.47,3.83-1.8,3.52,7.49Z"/><path class="cls-2" d="M1852.36,193.86l1.54,4.1-20.82,7.83-1.54-4.1Z"/><path class="cls-2" d="M1856.37,204.7l4.31,14.36-4.06,1.21-1.55-5.18-17.25,5.18-1.26-4.2,17.25-5.17-1.49-5Z"/><path class="cls-2" d="M1839.8,226.69l24.69,5.06,0,.24L1844,246.56l-1-5,14.59-9.61,2.78,2.66-19.62-3.72Zm9.28,5.06,1.38,6.53-3.3,2.27-2-9.37Z"/><path class="cls-2" d="M1866.65,248.59l.49,4.35-17.9,2,1.18,10.39-4.21.48-1.66-14.75Z"/></g><path class="cls-2" d="M1453,462.48a23.68,23.68,0,0,1-3.8,2.3,34.25,34.25,0,0,1-6.77,2.56,31.36,31.36,0,0,1-8.87,1,35.34,35.34,0,0,1-13.25-2.69,29,29,0,0,1-9.89-6.86,30.15,30.15,0,0,1-6.18-10,33.67,33.67,0,0,1-2.13-12,38.11,38.11,0,0,1,2.18-13.13,30.07,30.07,0,0,1,6.22-10.31,27.93,27.93,0,0,1,9.67-6.73,31.58,31.58,0,0,1,12.45-2.39,33.82,33.82,0,0,1,11.16,1.7,38.74,38.74,0,0,1,7.93,3.67l-4.86,11.68a35,35,0,0,0-5.67-3.37,18.22,18.22,0,0,0-8.14-1.75,16.49,16.49,0,0,0-6.86,1.49,18,18,0,0,0-5.79,4.22,20.6,20.6,0,0,0-4,6.35,21.21,21.21,0,0,0-1.45,7.89,24.82,24.82,0,0,0,1.32,8.27,18.49,18.49,0,0,0,3.8,6.43A16.7,16.7,0,0,0,1426,455a19.9,19.9,0,0,0,7.8,1.45,20.8,20.8,0,0,0,8.61-1.62,19.57,19.57,0,0,0,5.45-3.41Z"/><path class="cls-2" d="M1461.64,400.44h11.93v67.24h-11.93Z"/><path class="cls-2" d="M1499.82,468.71a21,21,0,0,1-9.42-2.09,15.54,15.54,0,0,1-6.69-6.44,25.29,25.29,0,0,1,.09-22,18.61,18.61,0,0,1,6.73-7.11,16.9,16.9,0,0,1,8.87-2.52q5.53,0,8.39,1.83a21.44,21.44,0,0,1,4.73,4.05l-.51,1.45,1.11-5.45h11.08v37.24h-11.93v-8.09l.93,2.55c-.11,0-.45.33-1,1a18.83,18.83,0,0,1-2.51,2.3,16.53,16.53,0,0,1-4.09,2.31A15.43,15.43,0,0,1,1499.82,468.71Zm3.41-9.72a10.82,10.82,0,0,0,3.84-.64,8.58,8.58,0,0,0,3-1.88,11.25,11.25,0,0,0,2.22-3.11v-9.12a8.47,8.47,0,0,0-2-3.19A9.68,9.68,0,0,0,1507,439a11.55,11.55,0,0,0-4.17-.72,8.93,8.93,0,0,0-4.73,1.32,9.71,9.71,0,0,0-3.46,3.62,10.76,10.76,0,0,0-1.28,5.29,10.58,10.58,0,0,0,1.37,5.36,10.22,10.22,0,0,0,3.62,3.76A9.4,9.4,0,0,0,1503.23,459Z"/><path class="cls-2" d="M1551.81,468.45l-22.33-38h14.15l12.7,25.74-7.33-.26,11-25.48h13.29l-21.13,38Z"/><path class="cls-2" d="M1595.62,468.71a24.1,24.1,0,0,1-11.55-2.56,17.49,17.49,0,0,1-7.2-7.08,21.25,21.25,0,0,1-2.47-10.39,18.45,18.45,0,0,1,2.9-10.15,21.3,21.3,0,0,1,7.75-7.2,22,22,0,0,1,10.83-2.68q8,0,13.17,4.64t6.69,13.43l-29,9.2-2.64-6.48,21-7.07-2.47,1.11a8.81,8.81,0,0,0-2.43-3.88,7.32,7.32,0,0,0-5.24-1.66,8.67,8.67,0,0,0-4.64,1.23,8,8,0,0,0-3.07,3.5,12.35,12.35,0,0,0-1.07,5.32,12.1,12.1,0,0,0,1.28,5.84,8.57,8.57,0,0,0,3.49,3.54,10.23,10.23,0,0,0,5,1.19,10.67,10.67,0,0,0,3.79-.68,19.94,19.94,0,0,0,3.62-1.79l5.29,8.87a30.54,30.54,0,0,1-6.44,2.72A22.69,22.69,0,0,1,1595.62,468.71Z"/><path class="cls-2" d="M1635.77,444.5a10.2,10.2,0,0,0,1.79,5.71,13.78,13.78,0,0,0,4.73,4.43,12.55,12.55,0,0,0,6.43,1.71,13.47,13.47,0,0,0,11.55-6.14,10.47,10.47,0,0,0,1.75-5.71V405h12.19v39.81A22.22,22.22,0,0,1,1670.8,457a23.88,23.88,0,0,1-9.21,8.35,27.33,27.33,0,0,1-12.87,3,26.89,26.89,0,0,1-12.74-3,23.81,23.81,0,0,1-9.16-8.35,22.14,22.14,0,0,1-3.41-12.23V405h12.36Zm28.89-55.15-12.61,11.51h-7.25l6.65-11.51Z"/><path class="cls-2" d="M1696.28,430.44l.94,6.64-.17-.59a15.28,15.28,0,0,1,5.54-5.67,16.59,16.59,0,0,1,8.78-2.17,12.85,12.85,0,0,1,8.82,3.11,10.51,10.51,0,0,1,3.62,8.05v27.87h-11.93V444.24a6.42,6.42,0,0,0-1.32-4,5.13,5.13,0,0,0-4.14-1.49,7,7,0,0,0-4.77,1.79,11.38,11.38,0,0,0-3.15,4.86,20.7,20.7,0,0,0-1.11,7.07v15.17h-11.93V430.44Z"/><path class="cls-2" d="M1734.12,417.23a5.37,5.37,0,0,1,2.09-4.35,6.93,6.93,0,0,1,4.48-1.71,6.63,6.63,0,0,1,4.39,1.71,5.47,5.47,0,0,1,2,4.35,5.34,5.34,0,0,1-2,4.3,6.72,6.72,0,0,1-4.39,1.66,7,7,0,0,1-4.48-1.66A5.25,5.25,0,0,1,1734.12,417.23Zm.26,13.21h11.93v37.24h-11.93Z"/><path class="cls-2" d="M1788.5,464.36a19.29,19.29,0,0,1-6.18,3.15,23.57,23.57,0,0,1-7.29,1.2,24.82,24.82,0,0,1-11.12-2.35,17.13,17.13,0,0,1-7.33-6.73A20.5,20.5,0,0,1,1754,449a19.27,19.27,0,0,1,2.81-10.61,18.55,18.55,0,0,1,7.38-6.69,20.93,20.93,0,0,1,9.59-2.31,25.24,25.24,0,0,1,8.73,1.37,21.09,21.09,0,0,1,6.35,3.58l-5.79,7.67a16.83,16.83,0,0,0-3.29-1.92,11.45,11.45,0,0,0-4.9-1,8.34,8.34,0,0,0-4.51,1.28,9.08,9.08,0,0,0-3.24,3.49,10.61,10.61,0,0,0-1.2,5.12,10.22,10.22,0,0,0,1.28,5,9.4,9.4,0,0,0,3.54,3.62,10.35,10.35,0,0,0,5.33,1.32,11.12,11.12,0,0,0,3.62-.56,8.19,8.19,0,0,0,2.85-1.57Z"/><path class="cls-2" d="M1811.68,468.71a21,21,0,0,1-9.42-2.09,15.54,15.54,0,0,1-6.69-6.44,25.29,25.29,0,0,1,.09-22,18.61,18.61,0,0,1,6.73-7.11,16.9,16.9,0,0,1,8.87-2.52q5.54,0,8.39,1.83a21.44,21.44,0,0,1,4.73,4.05l-.51,1.45,1.11-5.45h11.08v37.24h-11.93v-8.09l.93,2.55c-.11,0-.45.33-1,1a19.48,19.48,0,0,1-2.51,2.3,16.34,16.34,0,0,1-4.09,2.31A15.43,15.43,0,0,1,1811.68,468.71Zm3.41-9.72a10.82,10.82,0,0,0,3.84-.64,8.58,8.58,0,0,0,3-1.88,11.25,11.25,0,0,0,2.22-3.11v-9.12a8.47,8.47,0,0,0-2.05-3.19,9.68,9.68,0,0,0-3.24-2.05,11.55,11.55,0,0,0-4.17-.72,9,9,0,0,0-4.74,1.32,9.76,9.76,0,0,0-3.45,3.62,10.75,10.75,0,0,0-1.27,5.29,10.58,10.58,0,0,0,1.36,5.36,10.14,10.14,0,0,0,3.62,3.76A9.4,9.4,0,0,0,1815.09,459Z"/><rect class="cls-1" y="-0.83" width="560" height="720" rx="280"/><path class="cls-2" d="M222.18,596.29q3.16-3.07,6-6c1.92-2,3.64-3.9,5.18-5.75a30.48,30.48,0,0,0,3.65-5.38,11,11,0,0,0,1.34-5,6.62,6.62,0,0,0-.55-2.8,5.76,5.76,0,0,0-1.41-1.91,6.14,6.14,0,0,0-2-1.11,6.82,6.82,0,0,0-2.23-.37,6.6,6.6,0,0,0-2.78.52,5.22,5.22,0,0,0-1.86,1.36,5.36,5.36,0,0,0-1,1.79,5.59,5.59,0,0,0-.32,1.88,8.34,8.34,0,0,0,.49,3,6.73,6.73,0,0,0,1.44,2.31l-3,2.62a6.32,6.32,0,0,1-1.95-2.08,10.85,10.85,0,0,1-1.24-2.9,10.5,10.5,0,0,1-.43-2.8,10.11,10.11,0,0,1,1.32-5,9.76,9.76,0,0,1,3.87-3.8,12.47,12.47,0,0,1,6.22-1.44,10.15,10.15,0,0,1,5.45,1.44,10,10,0,0,1,3.62,3.8,10.59,10.59,0,0,1,1.29,5.18,12.57,12.57,0,0,1-1,4.86,24.27,24.27,0,0,1-2.65,4.71,56.29,56.29,0,0,1-3.67,4.59q-2,2.25-4,4.53l-2.08-.69h14.48v4.61Z"/><path class="cls-2" d="M265,596.44a13.38,13.38,0,0,1-5.55-1.14,12.07,12.07,0,0,1-4.34-3.3,15.31,15.31,0,0,1-2.8-5.23,22.44,22.44,0,0,1-1-6.89,25.06,25.06,0,0,1,.94-7.27,14,14,0,0,1,2.75-5.18,11.3,11.3,0,0,1,4.34-3.1,15,15,0,0,1,5.65-1,13.18,13.18,0,0,1,5.53,1.14,12.29,12.29,0,0,1,4.32,3.3,15.78,15.78,0,0,1,2.82,5.21,21.75,21.75,0,0,1,1,6.92,22.16,22.16,0,0,1-1,7,15.49,15.49,0,0,1-2.82,5.21,12,12,0,0,1-4.32,3.24A13.33,13.33,0,0,1,265,596.44Zm0-4.61a7.68,7.68,0,0,0,4.83-1.52,9.07,9.07,0,0,0,2.95-4.23,18.43,18.43,0,0,0,1-6.3,17.82,17.82,0,0,0-1-6.23,8.94,8.94,0,0,0-2.95-4.14,7.78,7.78,0,0,0-4.83-1.48,7.54,7.54,0,0,0-4.81,1.51,9.11,9.11,0,0,0-2.91,4.19,20.73,20.73,0,0,0,0,12.47,9.06,9.06,0,0,0,2.91,4.21A7.54,7.54,0,0,0,265,591.83Z"/><path class="cls-2" d="M286.05,596.29q3.18-3.07,6.05-6c1.92-2,3.64-3.9,5.18-5.75a30.48,30.48,0,0,0,3.65-5.38,11,11,0,0,0,1.34-5,6.62,6.62,0,0,0-.55-2.8,5.76,5.76,0,0,0-1.41-1.91,6.14,6.14,0,0,0-2-1.11,6.82,6.82,0,0,0-2.23-.37,6.63,6.63,0,0,0-2.78.52,5.22,5.22,0,0,0-1.86,1.36,5.36,5.36,0,0,0-1,1.79,5.59,5.59,0,0,0-.32,1.88,8.34,8.34,0,0,0,.49,3,6.73,6.73,0,0,0,1.44,2.31l-3,2.62a6.32,6.32,0,0,1-1.95-2.08,10.85,10.85,0,0,1-1.24-2.9,10.5,10.5,0,0,1-.43-2.8,10.11,10.11,0,0,1,1.32-5,9.76,9.76,0,0,1,3.87-3.8,12.47,12.47,0,0,1,6.22-1.44,10.15,10.15,0,0,1,5.45,1.44,10,10,0,0,1,3.62,3.8,10.59,10.59,0,0,1,1.29,5.18,12.57,12.57,0,0,1-1,4.86,24.27,24.27,0,0,1-2.65,4.71,56.29,56.29,0,0,1-3.67,4.59q-2,2.25-4,4.53l-2.08-.69h14.48v4.61Z"/><path class="cls-2" d="M316.05,596.29q3.18-3.07,6.05-6t5.18-5.75a30,30,0,0,0,3.65-5.38,11,11,0,0,0,1.34-5,6.62,6.62,0,0,0-.55-2.8,5.63,5.63,0,0,0-1.41-1.91,6,6,0,0,0-2-1.11,6.82,6.82,0,0,0-2.23-.37,6.63,6.63,0,0,0-2.78.52,5.22,5.22,0,0,0-1.86,1.36,5.36,5.36,0,0,0-1,1.79,5.59,5.59,0,0,0-.32,1.88,8.34,8.34,0,0,0,.49,3,6.73,6.73,0,0,0,1.44,2.31l-3,2.62a6.34,6.34,0,0,1-2-2.08,11.76,11.76,0,0,1-1.66-5.7,10.1,10.1,0,0,1,1.31-5,9.9,9.9,0,0,1,3.87-3.8,12.47,12.47,0,0,1,6.22-1.44,10,10,0,0,1,9.08,5.24,10.59,10.59,0,0,1,1.29,5.18,12.58,12.58,0,0,1-1,4.86,24.27,24.27,0,0,1-2.65,4.71,56.29,56.29,0,0,1-3.67,4.59q-2,2.25-4,4.53l-2.08-.69h14.48v4.61Z"/><path class="cls-2" d="M162.5,455.28l-1.78,14.37h13.67l-.77,6.17H160l-1.78,14.43h-6.76l1.77-14.43H139.66l.77-6.17H154l1.78-14.37Z"/><path class="cls-2" d="M216.47,496.15a2.41,2.41,0,0,1-2.82-2.58l.28-5.23a22.85,22.85,0,0,1-5.79,6.08,11.7,11.7,0,0,1-6.83,2.25,9.8,9.8,0,0,1-4.07-.82,8.06,8.06,0,0,1-3.12-2.46,11.53,11.53,0,0,1-2-4.15,22,22,0,0,1-.7-5.92,28.09,28.09,0,0,1,.63-5.95,28.47,28.47,0,0,1,1.77-5.52,26.31,26.31,0,0,1,2.74-4.82,20.44,20.44,0,0,1,3.54-3.8,16.3,16.3,0,0,1,4.17-2.51,12,12,0,0,1,4.58-.91,10.58,10.58,0,0,1,4.36.88,11,11,0,0,1,3.42,2.37L219,444.34h8.44L221,496.15Zm-11.82-6.24a5.2,5.2,0,0,0,2.86-1,12.62,12.62,0,0,0,2.83-2.65,22.86,22.86,0,0,0,2.52-4,31.74,31.74,0,0,0,2-4.93l1.08-8.68a6.57,6.57,0,0,0-2.72-1.82,9.47,9.47,0,0,0-3-.52,6.76,6.76,0,0,0-4.18,1.43,12.56,12.56,0,0,0-3.23,3.73,20.32,20.32,0,0,0-2.07,5.18,23.22,23.22,0,0,0-.73,5.77,10.18,10.18,0,0,0,1.22,5.6A3.87,3.87,0,0,0,204.65,489.91Z"/><path class="cls-2" d="M259.53,468.67a10,10,0,0,1-1,4.4,8.94,8.94,0,0,1-3.43,3.55,24.27,24.27,0,0,1-6.71,2.7,69.5,69.5,0,0,1-10.79,1.8v.45q0,8.44,7.14,8.44a11.63,11.63,0,0,0,2.72-.29,11.44,11.44,0,0,0,2.08-.72,9.49,9.49,0,0,0,1.6-.94c.48-.35.92-.66,1.33-.94a9.52,9.52,0,0,1,1.2-.72,2.84,2.84,0,0,1,1.29-.3,2,2,0,0,1,.84.2,1.84,1.84,0,0,1,.7.57l2.19,2.65a35.26,35.26,0,0,1-3.62,3.21,20.07,20.07,0,0,1-3.63,2.23,16.62,16.62,0,0,1-3.91,1.29,22.47,22.47,0,0,1-4.49.42,14.61,14.61,0,0,1-5.69-1.06,12.59,12.59,0,0,1-4.36-3,13.56,13.56,0,0,1-2.8-4.67,17.94,17.94,0,0,1-1-6.12,25.22,25.22,0,0,1,2.37-10.71,22,22,0,0,1,2.83-4.49,18.72,18.72,0,0,1,3.78-3.56,17.11,17.11,0,0,1,10.06-3.18,13.79,13.79,0,0,1,4.94.81,11.18,11.18,0,0,1,3.52,2.07,8.59,8.59,0,0,1,2.11,2.84A7.61,7.61,0,0,1,259.53,468.67Zm-11.75-2.79a7.39,7.39,0,0,0-3.24.72,9,9,0,0,0-2.7,2,12.78,12.78,0,0,0-2.09,3.09,18.74,18.74,0,0,0-1.42,3.92,62.24,62.24,0,0,0,7-1.29,17.31,17.31,0,0,0,4.08-1.53,4.72,4.72,0,0,0,1.92-1.78,4.51,4.51,0,0,0,.47-2,2.87,2.87,0,0,0-.23-1.08,2.64,2.64,0,0,0-.7-1,3.87,3.87,0,0,0-1.22-.73A4.94,4.94,0,0,0,247.78,465.88Z"/><path class="cls-2" d="M262.78,496.15l6.27-51.81h8.47l-6.27,51.81Z"/><path class="cls-2" d="M309.43,496.71a21.26,21.26,0,0,1-6.5-.93,14.56,14.56,0,0,1-5-2.63,11.66,11.66,0,0,1-3.19-4.1,12.3,12.3,0,0,1-1.12-5.32A14.16,14.16,0,0,1,296.3,475a14.86,14.86,0,0,1,8.14-5.12A10.26,10.26,0,0,1,299.8,466a10.53,10.53,0,0,1-1.53-5.71,13.64,13.64,0,0,1,1.33-6,14.61,14.61,0,0,1,3.66-4.79,17,17,0,0,1,5.54-3.17,20.34,20.34,0,0,1,6.94-1.15,17.19,17.19,0,0,1,5.86.94,13.65,13.65,0,0,1,4.46,2.58,11.63,11.63,0,0,1,2.86,3.83,11.31,11.31,0,0,1,1,4.75,13.2,13.2,0,0,1-2.25,7.75A13.69,13.69,0,0,1,321,470a11.61,11.61,0,0,1,5.86,4,10.72,10.72,0,0,1,1.91,6.4,15,15,0,0,1-5.5,11.89,18.32,18.32,0,0,1-6.14,3.27A24.92,24.92,0,0,1,309.43,496.71Zm.76-6.53a11.86,11.86,0,0,0,4.28-.71,8.92,8.92,0,0,0,3.15-2,8.23,8.23,0,0,0,1.95-3.05,10.86,10.86,0,0,0,.67-3.9,8.08,8.08,0,0,0-.56-3.12,5.84,5.84,0,0,0-1.61-2.25,6.69,6.69,0,0,0-2.51-1.36,11,11,0,0,0-3.27-.46,12.34,12.34,0,0,0-4.13.65,8.75,8.75,0,0,0-3.14,1.87,8,8,0,0,0-2,3,11.5,11.5,0,0,0-.7,4.11,7.85,7.85,0,0,0,.51,2.88,6.22,6.22,0,0,0,1.5,2.26,6.77,6.77,0,0,0,2.46,1.51A9.81,9.81,0,0,0,310.19,490.18Zm2.86-23.32a9.35,9.35,0,0,0,4.22-.84,7.35,7.35,0,0,0,2.67-2.14,8,8,0,0,0,1.4-2.9,12.83,12.83,0,0,0,.4-3.08,7.56,7.56,0,0,0-.39-2.44,5.36,5.36,0,0,0-1.2-2,5.93,5.93,0,0,0-2.09-1.39,8,8,0,0,0-3.05-.52,9.72,9.72,0,0,0-3.8.69,7.8,7.8,0,0,0-2.72,1.87,7.49,7.49,0,0,0-1.62,2.74,9.93,9.93,0,0,0-.55,3.35,9,9,0,0,0,.35,2.49,5.92,5.92,0,0,0,1.15,2.14,5.65,5.65,0,0,0,2.1,1.5A7.89,7.89,0,0,0,313.05,466.86Z"/><path class="cls-2" d="M356.08,445.21a15,15,0,0,1,6.26,1.29,13.12,13.12,0,0,1,4.88,3.85,18.58,18.58,0,0,1,3.17,6.41,31.81,31.81,0,0,1,1.14,9,48.75,48.75,0,0,1-1.71,13.67,29.39,29.39,0,0,1-4.67,9.68,19,19,0,0,1-6.94,5.73,19.58,19.58,0,0,1-8.51,1.89,15,15,0,0,1-6.26-1.3,13,13,0,0,1-4.88-3.85,18.58,18.58,0,0,1-3.17-6.41,31.76,31.76,0,0,1-1.14-9A48.75,48.75,0,0,1,336,462.5a29.24,29.24,0,0,1,4.67-9.67,19,19,0,0,1,6.94-5.74A19.57,19.57,0,0,1,356.08,445.21Zm-5.26,44.59a8.35,8.35,0,0,0,4.7-1.46,12.16,12.16,0,0,0,3.82-4.43,27.09,27.09,0,0,0,2.56-7.45,51.6,51.6,0,0,0,.94-10.54,28.29,28.29,0,0,0-.64-6.56,13.27,13.27,0,0,0-1.74-4.27,6.51,6.51,0,0,0-2.53-2.3,6.9,6.9,0,0,0-3-.68,8.35,8.35,0,0,0-4.7,1.46,12.24,12.24,0,0,0-3.82,4.43,27.09,27.09,0,0,0-2.56,7.45,51.63,51.63,0,0,0-.94,10.55,28.25,28.25,0,0,0,.64,6.55,12.86,12.86,0,0,0,1.74,4.25,6.46,6.46,0,0,0,5.5,3Z"/><path class="cls-2" d="M415,447.09a6.92,6.92,0,0,1,1.13-.91,3.14,3.14,0,0,1,1.73-.42h6l-40.65,49.13a3.68,3.68,0,0,1-1.12.91,3.34,3.34,0,0,1-1.57.35h-6.13Zm-16.46,9a15.86,15.86,0,0,1-1.08,6,14.54,14.54,0,0,1-2.84,4.54,12.31,12.31,0,0,1-4,2.86,11.28,11.28,0,0,1-4.58,1,9.6,9.6,0,0,1-3.84-.75,8.14,8.14,0,0,1-3-2.14,9.8,9.8,0,0,1-1.9-3.37,13.26,13.26,0,0,1-.68-4.41,17.48,17.48,0,0,1,1-6,13.66,13.66,0,0,1,2.67-4.56,11.67,11.67,0,0,1,8.84-3.94,9.59,9.59,0,0,1,3.83.75,8,8,0,0,1,3,2.16,10,10,0,0,1,1.91,3.4A13.52,13.52,0,0,1,398.51,456.05Zm-6.45,0a6.63,6.63,0,0,0-1-4.19,3.19,3.19,0,0,0-2.59-1.25,4.66,4.66,0,0,0-2.15.5,4.53,4.53,0,0,0-1.72,1.61,8.55,8.55,0,0,0-1.14,2.82,19.3,19.3,0,0,0-.4,4.2,10.07,10.07,0,0,0,.26,2.44,4.62,4.62,0,0,0,.75,1.64,2.93,2.93,0,0,0,1.15.91,3.89,3.89,0,0,0,1.47.28,4.93,4.93,0,0,0,2.11-.47,4.4,4.4,0,0,0,1.72-1.54,8.17,8.17,0,0,0,1.15-2.77A17.78,17.78,0,0,0,392.06,456.09Zm29.54,26.29a15.89,15.89,0,0,1-1.08,6,14.72,14.72,0,0,1-2.83,4.53,12,12,0,0,1-4,2.86,11.39,11.39,0,0,1-4.6,1,9.44,9.44,0,0,1-3.84-.77,8.5,8.5,0,0,1-3-2.14,9.87,9.87,0,0,1-1.9-3.35,13.46,13.46,0,0,1-.68-4.38,17.49,17.49,0,0,1,1-6.05,13.64,13.64,0,0,1,2.66-4.58,11.71,11.71,0,0,1,8.84-3.94,9.47,9.47,0,0,1,3.84.76,8.49,8.49,0,0,1,3,2.18,10.24,10.24,0,0,1,1.92,3.4A13.89,13.89,0,0,1,421.6,482.38Zm-6.42,0a6.5,6.5,0,0,0-1.05-4.17,3.28,3.28,0,0,0-2.61-1.23,4.78,4.78,0,0,0-2.15.5,4.6,4.6,0,0,0-1.72,1.61,8.34,8.34,0,0,0-1.13,2.82,18.64,18.64,0,0,0-.41,4.2,6.31,6.31,0,0,0,1,4,3.21,3.21,0,0,0,2.61,1.23,5,5,0,0,0,2.15-.47,4.47,4.47,0,0,0,1.72-1.54,8.4,8.4,0,0,0,1.15-2.79A18,18,0,0,0,415.18,482.41Z"/><g class="cls-3"><path class="cls-2" d="M95.69,593.74a2.58,2.58,0,0,1,1.6.93,2.52,2.52,0,0,1,.48,1.71,2.18,2.18,0,0,1-.85,1.66,2.08,2.08,0,0,1-1.82.44,2.54,2.54,0,0,1-1.52-.89,2.69,2.69,0,0,1-.56-1.74,2.1,2.1,0,0,1,.86-1.67A2.2,2.2,0,0,1,95.69,593.74Z"/><path class="cls-2" d="M128.48,639.27a5.26,5.26,0,0,1-1.68-.23,15.82,15.82,0,0,1-2.25-.8,23.86,23.86,0,0,1-2.36-1.21,14.26,14.26,0,0,1-2-1.44,17.1,17.1,0,0,1-3.67-4.32,12.53,12.53,0,0,1-1.65-4.6,10.33,10.33,0,0,1,.35-4.53,11.13,11.13,0,0,1,2.32-4.11A14.11,14.11,0,0,1,122,614.4a11.25,11.25,0,0,1,4.81-1.18,12,12,0,0,1,4.73.92,16,16,0,0,1,4.27,2.66,19.19,19.19,0,0,1,3.07,3.32,15.15,15.15,0,0,1,1.8,3.21l-4.1,2.26a11,11,0,0,0-.84-1.58,19.55,19.55,0,0,0-1.24-1.78,9.62,9.62,0,0,0-1.3-1.41,12.4,12.4,0,0,0-3.1-2,7,7,0,0,0-3-.65,6.15,6.15,0,0,0-2.83.76,9.46,9.46,0,0,0-2.62,2.19,7.23,7.23,0,0,0-1.52,2.71,6.68,6.68,0,0,0-.18,2.88,7.83,7.83,0,0,0,1.08,2.82,11.52,11.52,0,0,0,2.26,2.6,12,12,0,0,0,1.59,1.18,5,5,0,0,0,1.46.63l1.89-2.19L125,628.86l3-3.45,7.17,6.2Z"/><path class="cls-2" d="M139,635.48a11.18,11.18,0,0,1,3.43-3.35,12.5,12.5,0,0,1,4.48-1.74,13.4,13.4,0,0,1,4.93,0,13.45,13.45,0,0,1,8.4,5.56,13.78,13.78,0,0,1,2,4.53,12.55,12.55,0,0,1,.2,4.84,11,11,0,0,1-1.73,4.47,11.14,11.14,0,0,1-3.47,3.4,12.07,12.07,0,0,1-4.51,1.68,13.7,13.7,0,0,1-13.32-5.67,13,13,0,0,1-2-4.46,12,12,0,0,1-.18-4.78A11.48,11.48,0,0,1,139,635.48Zm4.33,2.86a7.42,7.42,0,0,0-1.07,5.79,8,8,0,0,0,1.2,2.77,8.2,8.2,0,0,0,2.29,2.21,7.68,7.68,0,0,0,2.85,1.18,7.46,7.46,0,0,0,2.94,0,8,8,0,0,0,2.7-1.14,7.9,7.9,0,0,0,3.3-5,8,8,0,0,0,0-3,7.64,7.64,0,0,0-1.16-2.73,7.93,7.93,0,0,0-2.24-2.19,8.15,8.15,0,0,0-2.89-1.21,7.91,7.91,0,0,0-3,0,7.48,7.48,0,0,0-2.74,1.13A8,8,0,0,0,143.34,638.34Z"/><path class="cls-2" d="M178.4,645.38a11.55,11.55,0,0,1,5,4.2,5,5,0,0,1,.07,5.09,5.8,5.8,0,0,1-2.69,2.77,6.9,6.9,0,0,1-3.81.56,13.19,13.19,0,0,1-4.39-1.39L173,654a18,18,0,0,1,4.62,3.24A9.12,9.12,0,0,1,180,661a5.15,5.15,0,0,1-.37,3.88,6.77,6.77,0,0,1-2.15,2.61,6.05,6.05,0,0,1-2.78,1,8.59,8.59,0,0,1-3.09-.21,14.15,14.15,0,0,1-3.1-1.14L161,663.4,171.73,642Zm-8.13,17.81a6.71,6.71,0,0,0,1.92.65,3,3,0,0,0,1.66-.14,2.27,2.27,0,0,0,1.15-1.12,2,2,0,0,0,.15-1.69,3.46,3.46,0,0,0-1.1-1.39,9.6,9.6,0,0,0-1.74-1.12l-2.56-1.29-2.35,4.65Zm4.25-8.8a2.69,2.69,0,0,0,2.34.24,3,3,0,0,0,1.5-1.4,2.11,2.11,0,0,0,0-2.05,3.94,3.94,0,0,0-1.83-1.62l-2.41-1.22L171.8,653Z"/><path class="cls-2" d="M192.16,651.79l4.64,1.9-9.1,22.16-4.64-1.91Z"/><path class="cls-2" d="M203.18,656.27l16.53,5.32-1.4,4.33-11.75-3.78L205,667l10.41,3.35-1.4,4.34-10.4-3.35L202,676.27l12.22,3.93-1.4,4.33-17-5.46Z"/><path class="cls-2" d="M232.77,664.61a14.63,14.63,0,0,1,4,1.44,8.92,8.92,0,0,1,2.73,2.24,6.88,6.88,0,0,1,1.35,2.88,8,8,0,0,1,0,3.4,9.38,9.38,0,0,1-1.06,2.77,7.27,7.27,0,0,1-5.16,3.61,10.89,10.89,0,0,1-4.35-.17l-3.52-.74-1.58,7.45-4.9-1L225.22,663Zm-1.59,11.71a4.37,4.37,0,0,0,1.93,0,3.24,3.24,0,0,0,1.36-.64,3.77,3.77,0,0,0,.85-1,4.32,4.32,0,0,0,.42-1.06,5.38,5.38,0,0,0,.08-1,3.49,3.49,0,0,0-.24-1.3,3.11,3.11,0,0,0-.91-1.26,4.46,4.46,0,0,0-2-.84l-3.52-.75-1.5,7.07Zm4,3.84,4.25,10.34-5.72-1.21-4.41-10.24Z"/><path class="cls-2" d="M268.79,694.64,251.1,676.52l1.41.91L251.25,692l-5.06-.47,2.31-24.79.21,0,17.28,18-1.06-.56,1.29-14.88,5,.47-2.32,24.82Z"/><path class="cls-2" d="M276.41,682.08a11.31,11.31,0,0,1,.86-4.72,12.55,12.55,0,0,1,2.66-4,13.08,13.08,0,0,1,4.05-2.81,12.94,12.94,0,0,1,5-1.13,12.69,12.69,0,0,1,5,.82,13.56,13.56,0,0,1,4.25,2.55,12.6,12.6,0,0,1,3,3.83,11.45,11.45,0,0,1,.29,9.43,12.13,12.13,0,0,1-2.71,4,13.72,13.72,0,0,1-14.15,3.06,13,13,0,0,1-4.21-2.49,12.24,12.24,0,0,1-2.91-3.8A11.6,11.6,0,0,1,276.41,682.08Zm5.19-.16a7.19,7.19,0,0,0,.7,3,7.52,7.52,0,0,0,1.77,2.38,7.77,7.77,0,0,0,2.57,1.57,8.34,8.34,0,0,0,3.15.49,7.94,7.94,0,0,0,3-.68,7.3,7.3,0,0,0,2.38-1.72,7.84,7.84,0,0,0,1.55-2.49,7.81,7.81,0,0,0-.2-6,7.87,7.87,0,0,0-1.74-2.41,7.42,7.42,0,0,0-2.52-1.56,8.38,8.38,0,0,0-6.15.19,7.55,7.55,0,0,0-2.44,1.72,7.4,7.4,0,0,0-1.59,2.51A7.8,7.8,0,0,0,281.6,681.92Z"/><path class="cls-2" d="M323.39,690.57l-4.81-23.47,7.45-1.52a17.58,17.58,0,0,1,6.62-.26,11.55,11.55,0,0,1,4.83,1.93,11.37,11.37,0,0,1,3.16,3.44,13.66,13.66,0,0,1,1.64,4.22,10.78,10.78,0,0,1,0,4.9,10.93,10.93,0,0,1-2,4.13,12.27,12.27,0,0,1-3.54,3.08,14.81,14.81,0,0,1-4.65,1.77Zm4-5.47,2.91-.6a11.6,11.6,0,0,0,3.29-1.16,7.53,7.53,0,0,0,2.35-1.89,6,6,0,0,0,1.24-2.59,9.12,9.12,0,0,0-1.61-6.82,6.54,6.54,0,0,0-2.43-1.84,7.49,7.49,0,0,0-2.61-.61,8.53,8.53,0,0,0-2.13.12l-4,.82Z"/><path class="cls-2" d="M344.78,661.11l4.81-1.41,6.78,23-4.81,1.42Z"/><path class="cls-2" d="M383.16,670.37a5.15,5.15,0,0,1-1,1.37,14.94,14.94,0,0,1-1.76,1.62,22.25,22.25,0,0,1-2.17,1.53A13.37,13.37,0,0,1,376,676a17,17,0,0,1-5.54,1.23,12.63,12.63,0,0,1-4.83-.69,10.34,10.34,0,0,1-3.85-2.43,11.4,11.4,0,0,1-2.55-4,14.11,14.11,0,0,1-1.09-5.7,11.35,11.35,0,0,1,1.2-4.8,11.88,11.88,0,0,1,3-3.75,15.92,15.92,0,0,1,4.34-2.54,19,19,0,0,1,4.38-1.16,15.38,15.38,0,0,1,3.67-.09l.09,4.68a10.57,10.57,0,0,0-1.79,0,19.91,19.91,0,0,0-2.16.27,10.47,10.47,0,0,0-1.85.49,12.32,12.32,0,0,0-3.23,1.79,7.09,7.09,0,0,0-2,2.34,6.09,6.09,0,0,0-.65,2.85,9.33,9.33,0,0,0,.71,3.34,7.15,7.15,0,0,0,1.69,2.61,6.39,6.39,0,0,0,2.46,1.5,7.61,7.61,0,0,0,3,.37,11.05,11.05,0,0,0,3.35-.79,11.82,11.82,0,0,0,1.78-.85,5.05,5.05,0,0,0,1.25-1L376.4,667l-4.09,1.6-1.66-4.25,8.83-3.44Z"/><path class="cls-2" d="M380.59,647.59l4.5-2.22,10.59,21.49-4.5,2.21Z"/><path class="cls-2" d="M389.71,643.13l14.8-8.69,2.3,3.93-5.33,3.13,9.82,16.72L407,660.77l-9.83-16.72-5.13,3Z"/><path class="cls-2" d="M418.62,654l-5.23-26.92.23-.16,23.86,13.49-4.71,3.4-16.18-9.93,1.58-4,4.46,21.25Zm1.32-11.62,6.2-4.46,3.75,2.19-8.9,6.4Z"/><path class="cls-2" d="M426.24,618.48l3.73-3.35,12.95,14.44,8.91-8,3.05,3.39-12.65,11.35Z"/><path class="cls-2" d="M467,594.77a2.54,2.54,0,0,1,.5-1.77,2.46,2.46,0,0,1,1.55-.88,2.16,2.16,0,0,1,1.82.42,2.1,2.1,0,0,1,.87,1.66,2.53,2.53,0,0,1-.5,1.68,2.62,2.62,0,0,1-1.55,1,2.1,2.1,0,0,1-1.83-.43A2.15,2.15,0,0,1,467,594.77Z"/></g><g class="cls-3"><path class="cls-2" d="M54,262.32,32.47,249.23l0-.24,24.28-6.78-.7,5-17,4.12-1.72-3.44L54.59,258Zm-7-7.89.91-6.62,3.86-1-1.31,9.49Z"/><path class="cls-2" d="M36.15,232.76,53.21,230l-1.07,2.36-13.8-9.19,1.15-5.07,20.43,15.07L35,237.88Z"/><path class="cls-2" d="M61.1,223.32,42.19,206.65l.07-.23L67.35,204l-1.57,4.83-17.44,1.09-1.09-3.69,15.18,13Zm-5.54-9L57.62,208l4-.33-3,9.11Z"/><path class="cls-2" d="M78,182l-20.8,9.14,1.19-.89,12.44,5.49L69,199.83l-21.08-9.48.07-.17,20.6-8.83-.78.71-12.69-5.6,1.81-4L78,181.92Z"/><path class="cls-2" d="M87.37,160.07a8.29,8.29,0,0,1,0,1.57,12,12,0,0,1-.43,2.53,11.24,11.24,0,0,1-1.28,2.9,12.37,12.37,0,0,1-3.21,3.56,10.34,10.34,0,0,1-3.87,1.8,10.78,10.78,0,0,1-4.16.09,11.81,11.81,0,0,1-4-1.51,13.21,13.21,0,0,1-3.62-3,10.57,10.57,0,0,1-2-3.76,9.86,9.86,0,0,1-.32-4.16,11.19,11.19,0,0,1,1.51-4.23,11.83,11.83,0,0,1,2.53-3.11A13.49,13.49,0,0,1,71,151l2.7,3.58a12.53,12.53,0,0,0-2,1.13,6.38,6.38,0,0,0-2,2.17,5.82,5.82,0,0,0-.78,2.37,6.62,6.62,0,0,0,.25,2.53,7.57,7.57,0,0,0,1.23,2.35A7.49,7.49,0,0,0,72.49,167,8.79,8.79,0,0,0,75.25,168a6.57,6.57,0,0,0,2.65,0A6,6,0,0,0,80.23,167a7.19,7.19,0,0,0,1.85-2.13,7.35,7.35,0,0,0,1-2.92,7,7,0,0,0-.06-2.28Z"/><path class="cls-2" d="M74.15,143.23,83.07,131l3.42,2.49-6.34,8.73L84,145l5.61-7.73L93,139.71l-5.61,7.73,3.89,2.82,6.59-9.07,3.42,2.48-9.16,12.62Z"/><path class="cls-2" d="M100.15,119.11a16.74,16.74,0,0,0-2.57,1.19,7.43,7.43,0,0,0-2,1.56,3.77,3.77,0,0,0-1,2.06,2,2,0,0,0,.76,1.75,2,2,0,0,0,1.47.46,6,6,0,0,0,1.88-.49,20.32,20.32,0,0,0,2-1,17.46,17.46,0,0,1,1.91-.88,7.44,7.44,0,0,1,2.06-.48,5.61,5.61,0,0,1,2.18.3,7.25,7.25,0,0,1,2.34,1.44,5.93,5.93,0,0,1,1.79,2.72,6.3,6.3,0,0,1,.08,3.48A8.9,8.9,0,0,1,109,135a13.46,13.46,0,0,1-1.9,1.78,12.43,12.43,0,0,1-2.29,1.43,12.58,12.58,0,0,1-2.62,1l-1.3-3.7a10.34,10.34,0,0,0,1.88-.62,10.07,10.07,0,0,0,1.74-1,6.8,6.8,0,0,0,1.31-1.13,6.24,6.24,0,0,0,.87-1.35,2.82,2.82,0,0,0,.29-1.51,2,2,0,0,0-.79-1.39A1.82,1.82,0,0,0,105,128a4.54,4.54,0,0,0-1.52.23,9.47,9.47,0,0,0-1.66.7c-.65.35-1.34.68-2.07,1a10.87,10.87,0,0,1-2.29.72,5.89,5.89,0,0,1-2.4-.05,5.69,5.69,0,0,1-2.42-1.33,6.33,6.33,0,0,1-2-2.86,6.08,6.08,0,0,1-.1-3.31,8.4,8.4,0,0,1,1.69-3.34,12.64,12.64,0,0,1,3.35-2.88,15.21,15.21,0,0,1,3.11-1.27Z"/><path class="cls-2" d="M111.27,100.29l11.44-10,2.78,3.19-8.14,7.08,3.11,3.58,7.21-6.27,2.77,3.2-7.2,6.26,3.15,3.63,8.46-7.36,2.78,3.19-11.77,10.23Z"/><path class="cls-2" d="M159,92.54,136.47,89.7l1.48-.15,7.85,11.1-3.64,2.55-13.23-19,.15-.1,22.21,3-1,.21-8-11.32,3.62-2.53,13.25,19Z"/><path class="cls-2" d="M163.37,63.37l13.44-6.63,1.87,3.8-4.85,2.39,8,16.15L177.86,81l-8-16.15-4.67,2.29Z"/><path class="cls-2" d="M190.07,51.28a12,12,0,0,1,3.66-.84,7.53,7.53,0,0,1,3.1.43,6.49,6.49,0,0,1,2.41,1.6,8.08,8.08,0,0,1,1.64,2.69,9.17,9.17,0,0,1,.6,2.68,7.15,7.15,0,0,1-.35,2.79,6.56,6.56,0,0,1-1.63,2.55,9,9,0,0,1-3.26,2l-2.93,1.13,2.54,6.6-4.1,1.57-8-20.76Zm4.63,9.94a3.74,3.74,0,0,0,1.43-.9,2.8,2.8,0,0,0,.67-1.17,3.54,3.54,0,0,0,.13-1.19,3.9,3.9,0,0,0-.22-1,5.54,5.54,0,0,0-.43-.82,3.6,3.6,0,0,0-.82-.9,2.61,2.61,0,0,0-1.29-.54,3.63,3.63,0,0,0-1.85.29l-2.93,1.12,2.4,6.27Zm4.81,1.07,8.21,6L203,70.16l-8.28-5.89Z"/><path class="cls-2" d="M210,67.54l3.55-25,.23-.06,15.8,19.64-4.9,1.34-10.48-14,2.49-2.94L214.19,66.4ZM214.51,58,221,56.21l2.47,3.15-9.24,2.53Z"/><path class="cls-2" d="M253.8,59,234.74,46.6l1.4.51,2.24,13.41-4.39.7L230.34,38.4l.18,0,18.69,12.37-1-.26-2.28-13.69,4.35-.69L253.92,59Z"/><path class="cls-2" d="M271.71,40a16.48,16.48,0,0,0-2.65-1,7.7,7.7,0,0,0-2.48-.31,3.81,3.81,0,0,0-2.2.7,2,2,0,0,0-.72,1.77,1.9,1.9,0,0,0,.7,1.36,5.92,5.92,0,0,0,1.66,1,19.91,19.91,0,0,0,2.09.76,18.76,18.76,0,0,1,2,.75,7.31,7.31,0,0,1,1.78,1.14,5.31,5.31,0,0,1,1.31,1.77,7,7,0,0,1,.61,2.67,5.9,5.9,0,0,1-.69,3.19,6.44,6.44,0,0,1-2.43,2.49,8.89,8.89,0,0,1-4.11,1.13,13.69,13.69,0,0,1-5.22-.74,13.24,13.24,0,0,1-2.52-1.21L260.53,52a11.27,11.27,0,0,0,1.76.92,11.15,11.15,0,0,0,1.9.57,7.15,7.15,0,0,0,1.73.14,5.85,5.85,0,0,0,1.57-.32,3,3,0,0,0,1.29-.84,2.13,2.13,0,0,0,.44-1.54,1.91,1.91,0,0,0-.51-1.18,4.32,4.32,0,0,0-1.23-.93,9.81,9.81,0,0,0-1.66-.69c-.7-.22-1.42-.49-2.17-.79a11,11,0,0,1-2.11-1.13,5.45,5.45,0,0,1-2.39-4.42,6.38,6.38,0,0,1,.67-3.4,6.1,6.1,0,0,1,2.3-2.38,8.35,8.35,0,0,1,3.57-1.13,12.31,12.31,0,0,1,4.39.38,15.55,15.55,0,0,1,3.09,1.33Z"/><path class="cls-2" d="M280.35,34.46l13.89.37-.11,4.23-9.52-.25-.13,5,8.25.22-.12,4.23-8.24-.22-.24,8.73-4.38-.12Z"/><path class="cls-2" d="M299.24,46.19a11.07,11.07,0,0,1,1.42-4.2,11.88,11.88,0,0,1,2.88-3.31,11.31,11.31,0,0,1,3.9-2,11.08,11.08,0,0,1,8.72,1.12,12,12,0,0,1,3.3,2.93,11.58,11.58,0,0,1,2,3.93,10.64,10.64,0,0,1,.33,4.43,11,11,0,0,1-1.44,4.26,11.57,11.57,0,0,1-2.92,3.27,11.91,11.91,0,0,1-3.92,2,11.47,11.47,0,0,1-8.72-1.12,11.32,11.32,0,0,1-5.23-6.76A11.06,11.06,0,0,1,299.24,46.19Zm4.5.58a7.08,7.08,0,0,0,.17,2.8A7,7,0,0,0,305.09,52a6.89,6.89,0,0,0,2,1.8,6.76,6.76,0,0,0,2.64.88,6.4,6.4,0,0,0,5-1.44,7.38,7.38,0,0,0,1.69-2.07,7.64,7.64,0,0,0,.7-5.53A7.27,7.27,0,0,0,316,43.2a6.53,6.53,0,0,0-2-1.79,6.92,6.92,0,0,0-5.34-.68A6.71,6.71,0,0,0,306.33,42,7.12,7.12,0,0,0,304.6,44,7.66,7.66,0,0,0,303.74,46.77Z"/><path class="cls-2" d="M337.64,41.25a12.35,12.35,0,0,1,3.49,1.38,7.63,7.63,0,0,1,2.31,2.11,6.47,6.47,0,0,1,1.08,2.69,8.07,8.07,0,0,1-.17,3.14,9.29,9.29,0,0,1-1,2.55,7.08,7.08,0,0,1-1.87,2.1,6.65,6.65,0,0,1-2.79,1.18,9.19,9.19,0,0,1-3.8-.22l-3.06-.73-1.65,6.88-4.26-1,5.2-21.62Zm-1.82,10.81a3.66,3.66,0,0,0,1.69.07,2.79,2.79,0,0,0,1.21-.58,3.22,3.22,0,0,0,.78-.92,3.61,3.61,0,0,0,.41-1,6.1,6.1,0,0,0,.11-.92,3.51,3.51,0,0,0-.16-1.21,2.72,2.72,0,0,0-.76-1.17,3.67,3.67,0,0,0-1.68-.81l-3.06-.74-1.57,6.53Zm3.36,3.61,3.34,9.63-5-1.2-3.49-9.54Z"/><path class="cls-2" d="M347.21,66.6l8-21.73h0l5.58,20.71-1.62-1,17.46-11.82.06,0-8,21.74L364.6,73l4.57-12.45-.53,2.22L357.9,70.2l-.06,0-3.59-12.71,1.43-1.7-4.5,12.29Z"/><path class="cls-2" d="M372.78,76.32l19.36-16.13.22.11-1.44,25.15-4.53-2.28L388,65.77l3.81-.52-15.15,13Zm9.75-4.09,6,3-.28,4-8.56-4.31Z"/><path class="cls-2" d="M408.64,94.33a9.33,9.33,0,0,1-1.57,0,12.5,12.5,0,0,1-2.52-.51,11.06,11.06,0,0,1-2.86-1.36,12.66,12.66,0,0,1-3.48-3.29,10.48,10.48,0,0,1-1.68-3.92,10.59,10.59,0,0,1,0-4.16,11.77,11.77,0,0,1,1.62-4,13.39,13.39,0,0,1,3.11-3.53,10.76,10.76,0,0,1,3.81-1.94,10,10,0,0,1,4.18-.2A11,11,0,0,1,413.46,73a12,12,0,0,1,3,2.61,13.69,13.69,0,0,1,1.7,2.59l-3.66,2.6a12.19,12.19,0,0,0-1.07-2.08,6.32,6.32,0,0,0-2.12-2,5.73,5.73,0,0,0-2.34-.84,6.09,6.09,0,0,0-2.54.18,7.11,7.11,0,0,0-2.38,1.16,7.34,7.34,0,0,0-1.92,2.1A8.67,8.67,0,0,0,401,82a6.43,6.43,0,0,0-.07,2.65,5.9,5.9,0,0,0,1,2.35A6.93,6.93,0,0,0,404,88.9a7.54,7.54,0,0,0,2.9,1.14,7.19,7.19,0,0,0,2.28,0Z"/><path class="cls-2" d="M425.49,81.44,429,84,415.86,102l-3.53-2.59Z"/><path class="cls-2" d="M427.87,96.89a11.09,11.09,0,0,1,3.52-2.7,11.69,11.69,0,0,1,8.59-.64,11.11,11.11,0,0,1,6.62,5.78,11.77,11.77,0,0,1,1.1,4.28,11.55,11.55,0,0,1-.53,4.37,10.7,10.7,0,0,1-2.19,3.86,10.81,10.81,0,0,1-3.57,2.74,11.46,11.46,0,0,1-4.24,1.09,11.7,11.7,0,0,1-4.35-.57,11.49,11.49,0,0,1-6.62-5.78,11.34,11.34,0,0,1-.57-8.53A11.1,11.1,0,0,1,427.87,96.89Zm3.41,3a7.34,7.34,0,0,0-1.42,2.43,7,7,0,0,0-.37,2.69,6.74,6.74,0,0,0,.65,2.6,7,7,0,0,0,1.7,2.21,6.39,6.39,0,0,0,5,1.58,7.17,7.17,0,0,0,2.56-.78,7.3,7.3,0,0,0,2.21-1.74A7.39,7.39,0,0,0,443,106.4a7.52,7.52,0,0,0,.41-2.67,6.6,6.6,0,0,0-.62-2.58,6.7,6.7,0,0,0-6.7-3.82,6.91,6.91,0,0,0-2.59.77A7.65,7.65,0,0,0,431.28,99.87Zm20.16-4.14-6.06.13-1.93-1.69,4.46-1.52Z"/><path class="cls-2" d="M454.29,139.56V116.84l.33,1.45-10,9.18-3-3.3,17.15-15.49.12.13-.2,22.41-.33-1,10.23-9.36,3,3.27-17.18,15.52Z"/><path class="cls-2" d="M463.72,150.31l18.48-12.37,3.7,5.53a14.63,14.63,0,0,1,2.34,5.3,10,10,0,0,1-.1,4.63,10.71,10.71,0,0,1-1.92,3.81,13.41,13.41,0,0,1-3.07,2.86,10.82,10.82,0,0,1-4.2,1.73,10.07,10.07,0,0,1-4.17-.14,10.54,10.54,0,0,1-3.76-1.77,12.35,12.35,0,0,1-3-3.15Zm5.95,1.29,1.44,2.16a10.07,10.07,0,0,0,2.05,2.27,6.57,6.57,0,0,0,2.37,1.23,5.59,5.59,0,0,0,2.61.07,7.53,7.53,0,0,0,2.74-1.2,7.77,7.77,0,0,0,2.56-2.56,5.91,5.91,0,0,0,.79-2.64,6.62,6.62,0,0,0-.31-2.36,7.91,7.91,0,0,0-.79-1.69l-2-3Z"/><path class="cls-2" d="M496.41,160.28l2.13,3.83L479.13,175,477,171.14Z"/><path class="cls-2" d="M492.14,196.65a4.54,4.54,0,0,1-1.3-.77,13.26,13.26,0,0,1-1.54-1.43,19.66,19.66,0,0,1-1.48-1.8,11.33,11.33,0,0,1-1.11-1.89A13.73,13.73,0,0,1,485.4,186a10.56,10.56,0,0,1,.48-4.31,9.68,9.68,0,0,1,2.1-3.56,11,11,0,0,1,3.56-2.53,14,14,0,0,1,5.21-1.38,10.61,10.61,0,0,1,4.45.72,10,10,0,0,1,3.54,2.39,13.08,13.08,0,0,1,2.47,3.64,15.24,15.24,0,0,1,1.21,3.77,12.84,12.84,0,0,1,.21,3.23l-4.3.41a8.93,8.93,0,0,0-.06-1.57,17.13,17.13,0,0,0-.31-1.88,9,9,0,0,0-.52-1.59,10.35,10.35,0,0,0-1.75-2.73,6.22,6.22,0,0,0-2.21-1.56,5.84,5.84,0,0,0-2.65-.36,9.3,9.3,0,0,0-3,.86,7.1,7.1,0,0,0-2.34,1.68,6,6,0,0,0-1.3,2.27,6.58,6.58,0,0,0-.24,2.67,9.31,9.31,0,0,0,.83,2.89,10.14,10.14,0,0,0,.84,1.51,4.18,4.18,0,0,0,1,1l2.44-1.12-1.6-3.49,3.85-1.77,3.45,7.53Z"/><path class="cls-2" d="M513.16,196l1.5,4.12-20.89,7.64-1.5-4.12Z"/><path class="cls-2" d="M517.08,206.89l4.18,14.4-4.06,1.18-1.51-5.2-17.3,5-1.22-4.21,17.3-5-1.45-5Z"/><path class="cls-2" d="M500.31,228.7,525,234l0,.24-20.69,14.38-1-5L518,234.15l2.76,2.69-19.59-3.9Zm9.23,5.15,1.32,6.54-3.31,2.24-1.89-9.39Z"/><path class="cls-2" d="M527,250.83l.45,4.36-17.92,1.86,1.08,10.4-4.21.43-1.53-14.75Z"/></g><path class="cls-2" d="M127.1,242.11H168V250H151.47v53.69H143.2V250H127.1Z"/><path class="cls-2" d="M179.43,268.45l.76,10.22-.42-1.36a14.84,14.84,0,0,1,4-5.5,21,21,0,0,1,5.46-3.49,12.92,12.92,0,0,1,5-1.24l-.42,7.84a12,12,0,0,0-7,1.54,13.3,13.3,0,0,0-4.77,4.77,12.49,12.49,0,0,0-1.75,6.39v16.11h-7.84V268.45Z"/><path class="cls-2" d="M215.82,304.58a19,19,0,0,1-9-2.13,15.53,15.53,0,0,1-6.39-6.26,22.54,22.54,0,0,1,.12-20.28,17.14,17.14,0,0,1,6.61-6.61,18.27,18.27,0,0,1,9.08-2.3,14.76,14.76,0,0,1,8.35,2.26,16.24,16.24,0,0,1,5.2,5.32l-.51,1.37.76-7.5h7.33v35.28h-7.92v-9.2l.85,2a8.42,8.42,0,0,1-1.49,2.18,17.66,17.66,0,0,1-3.07,2.68,18.33,18.33,0,0,1-4.39,2.26A16.1,16.1,0,0,1,215.82,304.58ZM218,298a12.58,12.58,0,0,0,5.37-1.11,10.54,10.54,0,0,0,4-3.11,11.42,11.42,0,0,0,2.18-4.81v-6.91a10.89,10.89,0,0,0-2.39-4.47,11.9,11.9,0,0,0-4.09-3,12.81,12.81,0,0,0-5.28-1.07,11.35,11.35,0,0,0-5.8,1.53,11.53,11.53,0,0,0-4.22,4.27,12.56,12.56,0,0,0-1.58,6.39,12.23,12.23,0,0,0,1.62,6.22,12,12,0,0,0,4.35,4.43A11.32,11.32,0,0,0,218,298Zm12-47.47L219.14,262h-5l7.07-11.42Z"/><path class="cls-2" d="M256.48,268.45l.68,7.92-.34-.68a15,15,0,0,1,13.89-8.61A14.06,14.06,0,0,1,276,268a9.77,9.77,0,0,1,3.79,2.69,8.75,8.75,0,0,1,1.92,4.3l-.43.25a15.17,15.17,0,0,1,5.67-6,14.57,14.57,0,0,1,7.63-2.18A11.3,11.3,0,0,1,302.8,270a10.46,10.46,0,0,1,3.11,7.63v26.08H298V280.46a8.43,8.43,0,0,0-1.33-4.55c-.82-1.23-2.25-1.89-4.3-2a8.77,8.77,0,0,0-5.5,1.88,12.72,12.72,0,0,0-3.79,4.81,15.92,15.92,0,0,0-1.45,6.35v16.79h-7.93V280.46a8,8,0,0,0-1.4-4.55,5.45,5.45,0,0,0-4.39-2,8.72,8.72,0,0,0-5.54,1.88,12.52,12.52,0,0,0-3.71,4.85,15.67,15.67,0,0,0-1.32,6.4v16.7H249.4V268.45Z"/><path class="cls-2" d="M317.42,255.66a4,4,0,0,1,1.49-3.15,4.94,4.94,0,0,1,3.28-1.28,4.65,4.65,0,0,1,3.2,1.28,4.3,4.3,0,0,1,0,6.35,4.74,4.74,0,0,1-3.2,1.23,4.89,4.89,0,0,1-3.28-1.28A4,4,0,0,1,317.42,255.66Zm.59,12.79h7.93v35.28H318Z"/><path class="cls-2" d="M341.37,252.93h7.92v15.69H359v6.22h-9.72v28.89h-7.92V274.84h-6.48v-6.22h6.48Z"/><path class="cls-2" d="M383.22,304.58a21.07,21.07,0,0,1-10.4-2.42,16.92,16.92,0,0,1-6.69-6.65,19.52,19.52,0,0,1-2.35-9.68,17.62,17.62,0,0,1,2.64-9.46,19.76,19.76,0,0,1,7.08-6.81,19.36,19.36,0,0,1,9.89-2.56A16.8,16.8,0,0,1,395,271.09a20.65,20.65,0,0,1,6.22,11.25l-29.06,10.23-1.88-4.69,23.87-8.69-1.71,1.1a11.89,11.89,0,0,0-3.41-4.9,9.1,9.1,0,0,0-6.22-2.08,10.85,10.85,0,0,0-5.8,1.57,11,11,0,0,0-4,4.31,14.17,14.17,0,0,0,.08,12.65,11.31,11.31,0,0,0,4.22,4.35,11.82,11.82,0,0,0,6.1,1.58,12.12,12.12,0,0,0,4.47-.86,17.68,17.68,0,0,0,4.05-2.21l3.66,5.88a24.52,24.52,0,0,1-5.92,2.9A20,20,0,0,1,383.22,304.58Z"/><path class="cls-2" d="M419.35,304.42a20.62,20.62,0,0,1-7.28-1.33,14.12,14.12,0,0,1-5.84-4l3.32-4.6a16.53,16.53,0,0,0,4.56,3.19,11.16,11.16,0,0,0,4.65,1.07,11,11,0,0,0,3.15-.43,4.92,4.92,0,0,0,2.34-1.4,3.84,3.84,0,0,0,.9-2.69,3.79,3.79,0,0,0-1.24-3,9.19,9.19,0,0,0-3.15-1.79c-1.28-.46-2.63-.88-4.05-1.28a15.12,15.12,0,0,1-6.65-4,9,9,0,0,1-2.3-6.22,10.27,10.27,0,0,1,1.41-5.24,10.64,10.64,0,0,1,4.17-4,14,14,0,0,1,6.86-1.54,22.11,22.11,0,0,1,6.57.9,16.39,16.39,0,0,1,5.45,2.94L429.07,276a9.3,9.3,0,0,0-3.67-2.38,13.33,13.33,0,0,0-3.83-.86,6.64,6.64,0,0,0-2.77.43,5.49,5.49,0,0,0-2.17,1.45,3.17,3.17,0,0,0-.86,2.21,3.74,3.74,0,0,0,1.2,2.9,8.38,8.38,0,0,0,3.11,1.75c1.28.43,2.54.87,3.79,1.32a18.38,18.38,0,0,1,4.69,2,10.63,10.63,0,0,1,3.28,3.15,8.37,8.37,0,0,1,1.24,4.69,11.78,11.78,0,0,1-1.5,5.84,10.58,10.58,0,0,1-4.51,4.26A16.66,16.66,0,0,1,419.35,304.42Z"/><path class="cls-2" d="M113.2,399.52V336.79H132a41.38,41.38,0,0,1,16.11,2.81,28.58,28.58,0,0,1,10.7,7.51,30,30,0,0,1,5.92,10.48,37.74,37.74,0,0,1,1.88,11.68A30.21,30.21,0,0,1,164,381.84a28.55,28.55,0,0,1-6.86,9.54,30,30,0,0,1-10.05,6.05A34.84,34.84,0,0,1,135,399.52Zm12.36-11.93h7.33a27.74,27.74,0,0,0,8.52-1.23,19,19,0,0,0,6.61-3.63,15.53,15.53,0,0,0,4.26-6,25,25,0,0,0-.51-18.32,16.7,16.7,0,0,0-4.94-6,18.21,18.21,0,0,0-6-2.94,21,21,0,0,0-5.2-.81H125.56Z"/><path class="cls-2" d="M175,349.07a5.37,5.37,0,0,1,2.08-4.35,7,7,0,0,1,4.48-1.71,6.63,6.63,0,0,1,4.39,1.71,5.47,5.47,0,0,1,2,4.35,5.34,5.34,0,0,1-2,4.3,6.72,6.72,0,0,1-4.39,1.66,7.07,7.07,0,0,1-4.48-1.66A5.24,5.24,0,0,1,175,349.07Zm.25,13.21h11.93v37.24H175.25Z"/><path class="cls-2" d="M217,418.27a26.06,26.06,0,0,1-8.48-1.19,23.06,23.06,0,0,1-5.84-2.9q-2.38-1.69-4.26-3.24l7-8.18a32.73,32.73,0,0,0,4.56,3.45,12.58,12.58,0,0,0,6.86,1.67,14,14,0,0,0,5.25-1A9.54,9.54,0,0,0,226,404a7.32,7.32,0,0,0,1.49-4.69v-8.18l.42,2.13a12.17,12.17,0,0,1-4.94,5.07,19.51,19.51,0,0,1-18.71-.42,19.26,19.26,0,0,1-6.86-7.08,20.2,20.2,0,0,1-2.56-10.18,19.93,19.93,0,0,1,2.73-10.44,20.81,20.81,0,0,1,7.08-7.21,17.41,17.41,0,0,1,9.2-2.64,22.66,22.66,0,0,1,8.4,1.41,13.71,13.71,0,0,1,5.32,3.45l-.42,1.11,1.27-4.09h11v37.24a16,16,0,0,1-3.07,9.68,21,21,0,0,1-8.14,6.64A25.61,25.61,0,0,1,217,418.27Zm-10.14-37.92a10.65,10.65,0,0,0,1.37,5.37,9.94,9.94,0,0,0,3.7,3.75,10.31,10.31,0,0,0,5.24,1.36,13.71,13.71,0,0,0,4.39-.64,10.56,10.56,0,0,0,3.41-1.87,10.42,10.42,0,0,0,2.52-3.12v-9.12a8.38,8.38,0,0,0-2.3-3.19,11.52,11.52,0,0,0-3.54-2.05,13.2,13.2,0,0,0-4.48-.72,10.49,10.49,0,0,0-5.24,1.32,9.82,9.82,0,0,0-3.7,3.62A10.19,10.19,0,0,0,206.87,380.35Z"/><path class="cls-2" d="M249.74,349.07a5.37,5.37,0,0,1,2.09-4.35,6.93,6.93,0,0,1,4.48-1.71,6.63,6.63,0,0,1,4.39,1.71,5.47,5.47,0,0,1,2,4.35,5.34,5.34,0,0,1-2,4.3,6.72,6.72,0,0,1-4.39,1.66,7,7,0,0,1-4.48-1.66A5.25,5.25,0,0,1,249.74,349.07Zm.26,13.21h11.93v37.24H250Z"/><path class="cls-2" d="M276,345.91h11.94v16.2h9v9.29h-9v28.12H276V371.4H270.2v-9.29H276Z"/><path class="cls-2" d="M320.06,400.55a21,21,0,0,1-9.42-2.09A15.54,15.54,0,0,1,304,392a25.29,25.29,0,0,1,.09-22,18.54,18.54,0,0,1,6.73-7.11,16.87,16.87,0,0,1,8.86-2.52c3.7,0,6.49.61,8.4,1.83a21.44,21.44,0,0,1,4.73,4l-.51,1.45,1.11-5.45h11.08v37.24H332.5v-8.09l.94,2.55c-.11,0-.46.33-1,1a19.69,19.69,0,0,1-2.52,2.31,16.65,16.65,0,0,1-4.09,2.3A15.41,15.41,0,0,1,320.06,400.55Zm3.41-9.72a10.72,10.72,0,0,0,3.83-.64,8.74,8.74,0,0,0,3-1.87,11.23,11.23,0,0,0,2.21-3.12v-9.12a8.33,8.33,0,0,0-2-3.19,9.68,9.68,0,0,0-3.24-2.05,11.57,11.57,0,0,0-4.18-.72,9,9,0,0,0-4.73,1.32,9.61,9.61,0,0,0-3.45,3.62,11.42,11.42,0,0,0,.08,10.66,10.21,10.21,0,0,0,3.63,3.75A9.38,9.38,0,0,0,323.47,390.83Z"/><path class="cls-2" d="M355,332.28h11.94v67.24H355Z"/><path class="cls-2" d="M395.83,400.55A24,24,0,0,1,384.28,398a17.52,17.52,0,0,1-7.2-7.07,21.32,21.32,0,0,1-2.47-10.4,18.44,18.44,0,0,1,2.89-10.15,21.33,21.33,0,0,1,7.76-7.2,22,22,0,0,1,10.83-2.68q8,0,13.16,4.64t6.69,13.43l-29,9.2-2.64-6.48,21-7.07-2.47,1.11a9,9,0,0,0-2.43-3.88,7.34,7.34,0,0,0-5.24-1.66A8.73,8.73,0,0,0,390.5,371a8.07,8.07,0,0,0-3.07,3.5,12.35,12.35,0,0,0-1.06,5.32,12,12,0,0,0,1.28,5.84,8.45,8.45,0,0,0,3.49,3.54,10.23,10.23,0,0,0,4.95,1.19,10.71,10.71,0,0,0,3.79-.68,19.94,19.94,0,0,0,3.62-1.79l5.28,8.87a30.23,30.23,0,0,1-6.43,2.72A22.74,22.74,0,0,1,395.83,400.55Z"/><path class="cls-2" d="M435,400.29a22.43,22.43,0,0,1-8.57-1.62,18.76,18.76,0,0,1-6.69-4.52l4.94-6.56a20.44,20.44,0,0,0,5.07,3.54,10.38,10.38,0,0,0,4.22,1.06,10.26,10.26,0,0,0,2.6-.3,4.15,4.15,0,0,0,1.84-.93,2.19,2.19,0,0,0,.68-1.66A2.75,2.75,0,0,0,438,387a10.06,10.06,0,0,0-2.94-1.4c-1.2-.37-2.48-.76-3.84-1.15q-5.11-1.62-7.37-4.73a11.3,11.3,0,0,1-2.26-6.78,12.25,12.25,0,0,1,1.49-5.67,12.07,12.07,0,0,1,4.77-4.77,16.66,16.66,0,0,1,8.48-1.92,29.06,29.06,0,0,1,7.93.94,19.66,19.66,0,0,1,6.14,3.07l-4.52,7a17,17,0,0,0-3.62-2.18,10.68,10.68,0,0,0-3.71-1,6.27,6.27,0,0,0-2.6.34,4.39,4.39,0,0,0-1.66,1.11,2.18,2.18,0,0,0-.6,1.45,2.78,2.78,0,0,0,1.24,2.56,10,10,0,0,0,3.36,1.45c1.37.34,2.7.74,4,1.19a15.91,15.91,0,0,1,4.69,2.3,10.41,10.41,0,0,1,3,3.45,10.15,10.15,0,0,1,1.07,4.82,12.59,12.59,0,0,1-1.75,6.43,12.79,12.79,0,0,1-5.28,4.91A19.24,19.24,0,0,1,435,400.29Z"/></svg>